<?xml version="1.0" standalone="no"?>
<!DOCTYPE svg PUBLIC "-//W3C//DTD SVG 1.1//EN" "http://www.w3.org/Graphics/SVG/1.1/DTD/svg11.dtd" >
<svg xmlns="http://www.w3.org/2000/svg" xmlns:xlink="http://www.w3.org/1999/xlink" version="1.1">
<metadata>
Created by FontForge 20170910 at Wed Aug 17 12:36:42 2011
 By Jimmy Wärting
</metadata>
<defs>
<font id="MTVUpgrade-Bold" horiz-adv-x="1064" >
  <font-face 
    font-family="MTV Upgrade"
    font-weight="700"
    font-stretch="normal"
    units-per-em="2048"
    panose-1="2 11 8 6 4 2 2 2 2 4"
    ascent="1589"
    descent="-459"
    x-height="1417"
    cap-height="1417"
    bbox="-72 -459 1995 1901"
    underline-thickness="61"
    underline-position="-286"
    unicode-range="U+0020-FB02"
  />
<missing-glyph horiz-adv-x="1650" 
d="M272 80v934q0 39 27 65.5t66 26.5h923q39 0 64.5 -26.5t25.5 -65.5v-934q0 -39 -25.5 -65.5t-64.5 -26.5h-923q-39 0 -66 26.5t-27 65.5zM487 213q0 -12 8.5 -21.5t28.5 -9.5h602q20 0 28.5 9.5t8.5 21.5v668q0 12 -8 21t-29 9h-602q-20 0 -28.5 -9t-8.5 -21v-668z" />
    <glyph glyph-name=".notdef" horiz-adv-x="1650" 
d="M272 80v934q0 39 27 65.5t66 26.5h923q39 0 64.5 -26.5t25.5 -65.5v-934q0 -39 -25.5 -65.5t-64.5 -26.5h-923q-39 0 -66 26.5t-27 65.5zM487 213q0 -12 8.5 -21.5t28.5 -9.5h602q20 0 28.5 9.5t8.5 21.5v668q0 12 -8 21t-29 9h-602q-20 0 -28.5 -9t-8.5 -21v-668z" />
    <glyph glyph-name=".null" horiz-adv-x="0" 
 />
    <glyph glyph-name="nonmarkingreturn" horiz-adv-x="682" 
 />
    <glyph glyph-name="space" unicode=" " horiz-adv-x="593" 
 />
    <glyph glyph-name="exclam" unicode="!" horiz-adv-x="720" 
d="M217 109v16q0 57 39 96t96 39h17q57 0 96 -39t39 -96v-16q0 -57 -39 -96.5t-96 -39.5h-17q-57 0 -96 39.5t-39 96.5zM254 524v801q0 39 25.5 65.5t64.5 26.5h33q39 0 65.5 -26.5t26.5 -65.5v-801q0 -39 -26.5 -65.5t-65.5 -26.5h-33q-39 0 -64.5 26.5t-25.5 65.5z" />
    <glyph glyph-name="quotedbl" unicode="&#x22;" horiz-adv-x="1116" 
d="M272 1358q2 43 30 70.5t69 27.5h20q41 0 71 -28.5t30 -69.5l-17 -410q-2 -43 -27.5 -68.5t-66.5 -25.5t-66.5 25.5t-27.5 68.5zM625 1358q2 43 29.5 70.5t68.5 27.5h20q41 0 71 -28.5t30 -69.5l-17 -410q-2 -43 -27.5 -68.5t-66.5 -25.5t-66.5 25.5t-27.5 68.5z" />
    <glyph glyph-name="numbersign" unicode="#" horiz-adv-x="1220" 
d="M209 416q0 10 2 16q6 31 31.5 52.5t58.5 21.5h53q16 0 29.5 12t17.5 29l35 153q0 12 -9 20.5t-21 8.5h-37q-33 0 -54.5 22.5t-21.5 51.5q0 10 2 16q6 31 31.5 52.5t58.5 21.5h53q16 0 29.5 11t17.5 28l25 117q6 31 31.5 52t58.5 21q31 0 52.5 -21.5t21.5 -51.5
q0 -10 -2 -17l-23 -108q0 -12 10.5 -21.5t24.5 -9.5h31q16 0 30.5 11t18.5 28l24 117q6 31 31 52t58 21t54 -21.5t21 -51.5q0 -10 -2 -17l-22 -108q0 -12 9 -21.5t24 -9.5h34q33 0 53.5 -19.5t20.5 -50.5q0 -14 -2 -20q-6 -31 -30.5 -52.5t-57.5 -21.5h-53q-16 0 -30.5 -11
t-18.5 -28l-33 -153q0 -14 9 -22.5t21 -8.5h37q33 0 54.5 -21.5t21.5 -52.5q0 -10 -2 -16q-6 -31 -31.5 -51.5t-58.5 -20.5h-53q-16 0 -29.5 -12.5t-17.5 -28.5l-25 -117q-6 -31 -31.5 -52t-58.5 -21t-54.5 21.5t-21.5 51.5q0 10 2 17l25 108q0 12 -10.5 22.5t-24.5 10.5
h-31q-16 0 -30.5 -12.5t-18.5 -28.5l-24 -117q-6 -31 -32 -52t-59 -21q-31 0 -52 21.5t-21 51.5q0 10 2 17l22 108q0 12 -10 22.5t-25 10.5h-32q-33 0 -54.5 20.5t-21.5 51.5zM565 537q0 -14 10.5 -22.5t24.5 -8.5h31q16 0 30.5 12t18.5 29l33 143q0 4 1 6t1 4q0 29 -33 29
h-35q-16 0 -31.5 -11t-19.5 -28l-29 -143q0 -4 -1 -6t-1 -4z" />
    <glyph glyph-name="dollar" unicode="$" horiz-adv-x="1091" 
d="M209 788q0 55 18.5 105.5t51 91.5t76.5 69.5t96 43.5v151q0 37 26.5 63.5t65.5 26.5q37 0 63.5 -26.5t26.5 -63.5v-153q33 -8 60.5 -20.5t51.5 -24.5q12 -6 23.5 -13.5t22.5 -11.5q10 -6 18 -12q43 -29 43 -76q0 -25 -16 -51l-13 -19q-31 -43 -75 -43q-25 0 -52 17
l-59 37q-57 35 -105 34q-45 0 -80.5 -32.5t-35.5 -81.5q0 -35 17.5 -64.5t49.5 -44.5l213 -90q88 -37 139.5 -119t51.5 -176q0 -57 -19.5 -110.5t-54.5 -95.5t-81 -71.5t-99 -43.5v-136q0 -37 -26.5 -63.5t-63.5 -26.5q-39 0 -65.5 27t-26.5 63v138q-59 14 -107 41l-43 24
q-18 10 -37 23q-29 18 -40 37.5t-11 42.5q0 25 18 55l7 10q31 47 79 47q31 0 54 -14l75 -49q23 -16 50.5 -25.5t54.5 -9.5q51 0 87 37t36 90q0 35 -18.5 68.5t-53.5 48.5l-213 88q-86 37 -133 116.5t-47 171.5z" />
    <glyph glyph-name="percent" unicode="%" 
d="M-72 899v268q0 53 19.5 98.5t54.5 79t81 53t97 19.5q53 0 99.5 -19.5t81 -53t54 -78.5t19.5 -99v-268q0 -51 -19.5 -97t-54 -81t-81 -54.5t-99.5 -19.5q-51 0 -97 19.5t-81 54.5t-54.5 81t-19.5 97zM96 891q0 -35 24.5 -59.5t59.5 -24.5t60.5 24.5t25.5 59.5v285
q0 35 -25.5 59.5t-60.5 24.5t-59.5 -25t-24.5 -59v-285zM182 63q0 16 8 39l510 1252q16 41 44 57t57 16q35 0 55.5 -20.5t20.5 -52.5q0 -16 -9 -39l-510 -1252q-16 -41 -43.5 -57t-56.5 -16q-35 0 -55.5 20t-20.5 53zM631 252v268q0 53 19.5 98.5t54 79t80.5 53t98 19.5
q53 0 99 -19.5t81 -53t54.5 -79t19.5 -98.5v-268q0 -51 -19.5 -97t-54.5 -81t-81 -54.5t-99 -19.5q-51 0 -97.5 19.5t-81 54.5t-54 81t-19.5 97zM799 244q0 -35 24.5 -59.5t59.5 -24.5t60.5 24.5t25.5 59.5v284q0 35 -25.5 59.5t-60.5 24.5t-59.5 -24.5t-24.5 -59.5v-284z
" />
    <glyph glyph-name="ampersand" unicode="&#x26;" horiz-adv-x="1196" 
d="M188 338v82q0 150 99 248q4 4 6 8t2 10q0 8 -8 21q-98 98 -99 247v70q0 76 29 142.5t79 115.5t117.5 78t143.5 29h231q39 0 66 -26t27 -65v-12q0 -39 -27 -65.5t-66 -26.5h-231q-63 0 -107 -45t-44 -109v-114q0 -63 44 -107.5t107 -44.5h129q16 0 28.5 12.5t12.5 28.5v37
q0 39 26.5 65.5t65.5 26.5h33q39 0 64.5 -26.5t25.5 -65.5v-37q0 -16 12.5 -28.5t28.5 -12.5h31q39 0 65.5 -26.5t26.5 -65.5t-26.5 -65.5t-65.5 -26.5h-31q-16 0 -28.5 -12.5t-12.5 -28.5v-211q0 -76 -28.5 -142.5t-79 -115.5t-118 -78t-143.5 -29h-16q-76 0 -143.5 29
t-117.5 78t-79 115.5t-29 142.5zM406 322q0 -63 44 -108.5t107 -45.5h18q63 0 107.5 45t44.5 109v227q0 16 -12.5 28.5t-28.5 12.5h-129q-63 0 -107 -44t-44 -108v-116z" />
    <glyph glyph-name="quotesingle" unicode="'" horiz-adv-x="763" 
d="M272 1358q2 43 30 70.5t69 27.5h20q41 0 71 -28.5t30 -69.5l-17 -410q-2 -43 -27.5 -68.5t-66.5 -25.5t-66.5 25.5t-27.5 68.5z" />
    <glyph glyph-name="parenleft" unicode="(" horiz-adv-x="829" 
d="M197 600v45q0 96 15 210t52 231.5t99.5 230.5t154.5 205q16 16 35.5 23t36.5 7q35 0 61.5 -23.5t26.5 -64.5q0 -23 -9.5 -40t-25.5 -35q-66 -74 -111 -166.5t-71.5 -190.5t-37.5 -197.5t-11 -189.5v-45q0 -88 11 -188.5t37.5 -198.5t72 -190.5t110.5 -165.5
q16 -18 25.5 -36t9.5 -40q0 -41 -26.5 -64.5t-61.5 -23.5q-16 0 -35.5 7t-36.5 24q-92 92 -154.5 204.5t-99.5 230t-52 231.5t-15 210z" />
    <glyph glyph-name="parenright" unicode=")" horiz-adv-x="829" 
d="M152 -219q0 23 9 40t25 36q66 74 111 166t71.5 190t38 198.5t11.5 188.5v45q0 90 -11.5 189.5t-38 197.5t-71.5 190.5t-111 166.5q-16 18 -25 35.5t-9 39.5q0 41 26.5 64.5t61.5 23.5q16 0 35.5 -7t35.5 -23q92 -92 154.5 -205t99.5 -230.5t52.5 -231.5t15.5 -210v-45
q0 -96 -15.5 -210t-52.5 -231.5t-99.5 -230t-154.5 -204.5q-16 -16 -35.5 -23.5t-35.5 -7.5q-35 0 -61.5 23.5t-26.5 64.5z" />
    <glyph glyph-name="asterisk" unicode="*" horiz-adv-x="1124" 
d="M209 1100q0 23 11 45t34 35l113 67l-113 64q-23 12 -34 34.5t-11 45.5q0 25 12 45q35 55 86 55q23 0 43 -12l115 -66v131q0 39 26.5 65.5t65.5 26.5h10q39 0 65.5 -26.5t26.5 -65.5v-131l113 66q23 12 43 12q25 0 47.5 -12.5t34.5 -34.5q10 -16 14 -28.5t4 -24.5
q0 -23 -11 -45.5t-34 -34.5l-114 -68l114 -63q23 -12 34 -35t11 -45q0 -23 -12 -45l-6 -8q-33 -45 -84 -46q-25 0 -41 11l-113 63v-129q0 -39 -26.5 -65.5t-65.5 -26.5h-10q-39 0 -65.5 26.5t-26.5 65.5v129l-115 -63q-20 -12 -43 -13q-51 0 -86 56q-12 22 -12 45z" />
    <glyph glyph-name="plus" unicode="+" horiz-adv-x="1257" 
d="M242 594v12q0 39 26.5 65.5t65.5 26.5h145q16 0 28.5 11.5t12.5 27.5v209q0 39 26.5 65.5t65.5 26.5h33q39 0 65.5 -26.5t26.5 -65.5v-209q0 -16 11.5 -27.5t27.5 -11.5h148q39 0 65.5 -26.5t26.5 -65.5v-12q0 -39 -26.5 -64.5t-65.5 -25.5h-148q-16 0 -27.5 -12.5
t-11.5 -28.5v-203q0 -39 -26.5 -65.5t-65.5 -26.5h-33q-39 0 -65.5 26.5t-26.5 65.5v203q0 16 -12 28.5t-29 12.5h-145q-39 0 -65.5 25.5t-26.5 64.5z" />
    <glyph glyph-name="comma" unicode="," horiz-adv-x="811" 
d="M199 -272q0 10 4 26l78 387q10 43 40.5 64.5t69.5 21.5q6 0 14.5 -1t24.5 -5q39 -10 63.5 -39.5t24.5 -70.5v-17q0 -8 -4 -18l-131 -371q-4 -12 -14.5 -30.5t-28.5 -28.5q-10 -6 -19.5 -8.5t-19.5 -2.5q-39 0 -70.5 25t-31.5 68z" />
    <glyph glyph-name="hyphen" unicode="-" horiz-adv-x="1093" 
d="M240 602q0 39 27.5 65.5t66.5 26.5h426q39 0 66.5 -26.5t27.5 -65.5t-27.5 -65.5t-66.5 -26.5h-426q-39 0 -66.5 26.5t-27.5 65.5z" />
    <glyph glyph-name="period" unicode="." horiz-adv-x="831" 
d="M272 109v16q0 57 39 96t97 39h16q57 0 96 -39t39 -96v-16q0 -57 -39 -96.5t-96 -39.5h-16q-57 0 -96.5 39.5t-39.5 96.5z" />
    <glyph glyph-name="slash" unicode="/" horiz-adv-x="1103" 
d="M256 66q0 18 4 28l498 1546q10 29 35.5 46.5t54.5 17.5q39 0 65.5 -27.5t26.5 -66.5q0 -16 -4 -29l-498 -1546q-10 -29 -35.5 -46.5t-54.5 -17.5q-39 0 -65.5 28t-26.5 67z" />
    <glyph glyph-name="zero" unicode="0" 
d="M164 385v590q0 59 4 89t10 52q16 59 49 109.5t79 86.5t104.5 56.5t121.5 20.5q66 0 123.5 -20.5t103.5 -56.5t79.5 -86t48.5 -110q6 -23 10 -52.5t4 -88.5v-590q0 -59 -4 -89t-10 -52q-14 -59 -48 -109.5t-80 -86.5t-103.5 -56.5t-123.5 -20.5q-63 0 -121.5 20.5
t-104.5 56.5t-78.5 86t-49.5 110q-6 23 -10 52.5t-4 88.5zM379 369q0 -45 2 -63.5t6 -29.5q14 -47 53 -78.5t92 -31.5t92.5 31.5t53.5 78.5q4 10 6 29t2 64v622q0 45 -2 63.5t-6 28.5q-14 47 -53 79t-93 32q-53 0 -92 -32t-53 -79q-4 -10 -6 -28.5t-2 -63.5v-622z" />
    <glyph glyph-name="one" unicode="1" horiz-adv-x="1181" 
d="M303 1120q0 53 51 82l293 154q6 2 14.5 4t14.5 2h35q39 0 65.5 -26.5t26.5 -65.5v-1178q0 -39 -26.5 -65.5t-65.5 -26.5h-33q-39 0 -65.5 26.5t-26.5 65.5v961q0 10 -3 18t-14 8q-4 0 -10 -3t-12 -7l-94 -49q-20 -12 -45 -12q-51 0 -78 45l-15 24q-12 23 -12 43z" />
    <glyph glyph-name="two" unicode="2" horiz-adv-x="1067" 
d="M164 92v96q0 80 29.5 154t82.5 133l351 397q31 35 44 75t13 79v14q0 63 -44 108.5t-108 45.5h-16q-27 0 -54.5 -9t-49.5 -26l-76 -49q-23 -14 -53 -14q-49 0 -80 47l-6 10q-18 31 -19 55q0 23 11.5 42.5t39.5 37.5q18 12 37 23l43 24q37 20 89.5 37t117.5 17h16
q76 0 142.5 -29t117 -78t79 -115.5t28.5 -142.5q0 -74 -28.5 -146.5t-82.5 -132.5l-348 -399q-53 -59 -57 -125q0 -27 27 -26h397q39 0 65.5 -27t26.5 -66v-10q0 -39 -26.5 -65.5t-65.5 -26.5h-551q-39 0 -65.5 26.5t-26.5 65.5z" />
    <glyph glyph-name="three" unicode="3" horiz-adv-x="1071" 
d="M164 154q0 25 18 55l6 10q31 47 80 47q31 0 54 -14l75 -49q23 -16 50.5 -25.5t54.5 -9.5h24q63 0 107.5 45t44.5 109v122q0 63 -44 107.5t-108 44.5q-39 0 -65.5 26.5t-26.5 65.5v10q0 39 26.5 66t65.5 27q63 0 107.5 44t44.5 107v98q0 63 -44 108.5t-108 45.5h-16
q-27 0 -54.5 -9t-49.5 -26l-76 -49q-23 -14 -54 -14q-49 0 -79 47l-7 10q-18 31 -18 55q0 23 11.5 42.5t39.5 37.5q18 12 37 23l43 24q37 20 89 37t118 17h16q76 0 143.5 -29t118 -78t79 -115.5t28.5 -142.5v-63q0 -150 -98 -248q-8 -12 -9 -21q0 -6 2.5 -10t6.5 -8
q98 -98 98 -248v-88q0 -76 -28.5 -142.5t-79 -115.5t-118 -78t-143.5 -29h-24q-66 0 -118 16.5t-89 37.5l-43 24q-18 10 -37 23q-29 18 -40 37.5t-11 42.5z" />
    <glyph glyph-name="four" unicode="4" 
d="M158 444v9q0 14 2 18l202 844q8 35 34 54.5t59 19.5q41 0 72.5 -26t31.5 -71q0 -10 -4 -26l-160 -654q-4 -12 -4 -18q0 -14 27 -14h100q16 0 27.5 12t11.5 29v186q0 39 26.5 65.5t65.5 26.5h33q39 0 65.5 -26.5t26.5 -65.5v-186q0 -16 12.5 -28.5t28.5 -12.5
q39 0 65.5 -27t26.5 -66v-10q0 -39 -26.5 -65.5t-65.5 -26.5q-16 0 -28.5 -12.5t-12.5 -28.5v-252q0 -39 -26.5 -65.5t-65.5 -26.5h-33q-39 0 -65.5 26.5t-26.5 65.5v252q0 16 -11 28.5t-28 12.5h-301q-25 0 -42 17t-17 42z" />
    <glyph glyph-name="five" unicode="5" horiz-adv-x="1071" 
d="M164 154q0 25 18 55l6 10q31 47 80 47q31 0 54 -14l75 -49q23 -16 50.5 -25.5t54.5 -9.5h24q63 0 107.5 45t44.5 109v223q0 63 -44 108t-108 45q-51 0 -100 -32l-64 -39q-10 -8 -28 -9h-8q-20 0 -37 13l-86 67q-16 16 -17 41v564q0 39 27 65.5t66 26.5h497q39 0 64.5 -27
t25.5 -65v-13q0 -39 -25.5 -65.5t-64.5 -26.5h-315q-23 0 -41.5 -15.5t-18.5 -39.5v-244q0 -29 25 -29q2 0 14 4q20 8 42 13.5t44 5.5q76 0 143.5 -28.5t118 -78t79 -116t28.5 -142.5v-190q0 -76 -28.5 -142.5t-79 -115.5t-118 -78t-143.5 -29h-24q-66 0 -118 16.5t-89 37.5
l-43 24q-18 10 -37 23q-29 18 -40 37.5t-11 42.5z" />
    <glyph glyph-name="six" unicode="6" 
d="M164 387v438q0 115 43 215.5t118.5 174t176 116.5t215.5 43h63q39 0 64.5 -26.5t25.5 -65.5v-10q0 -39 -25.5 -65.5t-64.5 -26.5h-63q-68 0 -126.5 -25t-104.5 -66.5t-73.5 -98t-33.5 -122.5v-18q0 -20 16 -21q6 0 23 9q37 16 71.5 26t69.5 10q123 0 208 -68.5
t120 -191.5q6 -23 10 -52.5t4 -84.5v-90q0 -59 -4 -89t-10 -52q-14 -59 -48 -109.5t-80 -86.5t-103.5 -56.5t-123.5 -20.5q-63 0 -121.5 20.5t-104.5 56.5t-78.5 86t-49.5 110q-6 23 -10 52.5t-4 88.5zM379 371q0 -45 2 -63.5t6 -28.5q14 -47 53 -79t92 -32t92.5 31.5
t53.5 79.5q4 10 6 28.5t2 63.5v123q0 41 -2 59t-6 29q-14 41 -49 69.5t-80 28.5q-35 0 -71 -13.5t-66 -39.5l-19 -17q-10 -10 -12 -19t-2 -22v-198z" />
    <glyph glyph-name="seven" unicode="7" horiz-adv-x="1067" 
d="M164 1260v10q0 39 26.5 65.5t65.5 26.5h551q39 0 65.5 -26.5t26.5 -65.5v-6q0 -18 -8 -39l-463 -1190q-10 -29 -33.5 -39t-46.5 -10q-27 0 -63 22q-43 29 -43 76q0 10 2 22.5t6 24.5l389 997q2 4 4 10.5t2 10.5q0 18 -22 18h-367q-39 0 -65.5 26t-26.5 67z" />
    <glyph glyph-name="eight" unicode="8" horiz-adv-x="1067" 
d="M164 338v88q0 72 24.5 136.5t71.5 111.5q10 10 10 18q0 10 -10 21q-47 47 -71.5 111.5t-24.5 136.5v63q0 76 28.5 142.5t79 115.5t117 78t141.5 29q76 0 143.5 -29t118 -78t79 -115.5t28.5 -142.5v-63q0 -72 -25.5 -136.5t-72.5 -111.5q-10 -10 -10 -21q0 -8 10 -18
q47 -47 72.5 -111.5t25.5 -136.5v-88q0 -76 -28.5 -142.5t-79 -115.5t-118 -78t-143.5 -29t-142 29t-116.5 78t-79 115.5t-28.5 142.5zM379 322q0 -63 44 -108.5t107 -45.5t107.5 45t44.5 109v122q0 63 -44 107.5t-108 44.5q-63 0 -107 -44t-44 -108v-122zM379 942
q0 -63 44 -107t107 -44t107.5 44t44.5 107v98q0 63 -44 108.5t-108 45.5q-63 0 -107 -45t-44 -109v-98z" />
    <glyph glyph-name="nine" unicode="9" 
d="M164 885v90q0 59 4 89t10 52q16 59 49 109.5t79 86.5t104.5 56.5t121.5 20.5q66 0 123.5 -20.5t103.5 -56.5t79.5 -86t48.5 -110q6 -23 10 -52.5t4 -88.5v-438q0 -115 -43 -215.5t-118.5 -174t-176 -116.5t-215.5 -43h-63q-39 0 -64.5 26.5t-25.5 65.5v10q0 39 25.5 65.5
t64.5 26.5h63q68 0 126 24.5t104.5 66.5t74 98.5t33.5 122.5v18q0 20 -16 20q-6 0 -23 -8q-37 -16 -71.5 -26.5t-69.5 -10.5q-123 0 -208 69t-120 192q-6 23 -10 52.5t-4 84.5zM379 868q0 -41 2 -59t6 -29q14 -41 49 -69.5t80 -28.5q35 0 71 13.5t66 39.5l19 17q10 10 12 19
t2 22v198q0 45 -2 63.5t-6 28.5q-14 47 -53 79t-93 32q-53 0 -92 -32t-53 -79q-4 -10 -6 -28.5t-2 -63.5v-123z" />
    <glyph glyph-name="colon" unicode=":" horiz-adv-x="831" 
d="M272 109v16q0 57 39 96t97 39h16q57 0 96 -39t39 -96v-16q0 -57 -39 -96.5t-96 -39.5h-16q-57 0 -96.5 39.5t-39.5 96.5zM272 778v17q0 57 39 96t97 39h16q57 0 96 -39t39 -96v-17q0 -57 -39 -96t-96 -39h-16q-57 0 -96.5 39t-39.5 96z" />
    <glyph glyph-name="semicolon" unicode=";" horiz-adv-x="806" 
d="M199 -272q0 10 4 26l78 387q10 43 40.5 64.5t69.5 21.5q6 0 14.5 -1t24.5 -5q39 -10 63.5 -39.5t24.5 -70.5v-17q0 -8 -4 -18l-131 -371q-4 -12 -14.5 -30.5t-28.5 -28.5q-10 -6 -19.5 -8.5t-19.5 -2.5q-39 0 -70.5 25t-31.5 68zM248 778v17q0 57 39 96t96 39h16
q57 0 96.5 -39t39.5 -96v-17q0 -57 -39 -96t-97 -39h-16q-57 0 -96 39t-39 96z" />
    <glyph glyph-name="less" unicode="&#x3c;" horiz-adv-x="1314" 
d="M303 602q0 43 31 74l475 475q27 29 68 29t67 -29q27 -27 27 -68q0 -37 -27 -63l-328 -344q-31 -31 -30 -74q0 -41 30 -72l328 -344q27 -27 27 -65q0 -39 -27 -68q-27 -27 -67 -26q-41 0 -68 26l-475 477q-31 31 -31 72z" />
    <glyph glyph-name="equal" unicode="=" horiz-adv-x="1224" 
d="M182 371q0 41 28 66.5t66 25.5h672q39 0 66.5 -25.5t27.5 -66.5q0 -39 -27.5 -65.5t-66.5 -26.5h-672q-39 0 -66.5 26.5t-27.5 65.5zM182 825q0 39 28 66t66 27h672q39 0 66.5 -27t27.5 -66t-27.5 -65.5t-66.5 -26.5h-672q-39 0 -66.5 26.5t-27.5 65.5z" />
    <glyph glyph-name="greater" unicode="&#x3e;" horiz-adv-x="1314" 
d="M344 121q0 39 27 65l327 344q31 31 31 72q0 43 -31 74l-327 344q-27 27 -27 63q0 41 27 68q27 29 67 29q41 0 68 -29l475 -475q31 -31 31 -74q0 -41 -31 -72l-475 -477q-27 -27 -68 -26q-41 0 -67 26q-27 29 -27 68z" />
    <glyph glyph-name="question" unicode="?" horiz-adv-x="1189" 
d="M197 1343q0 23 11 42.5t40 37.5q18 12 37 23l43 24q37 20 89 37t118 17h16q76 0 142.5 -29t116.5 -78t79 -115.5t29 -142.5q0 -74 -29 -146.5t-82 -131.5l-160 -183q-37 -39 -37 -92v-108q0 -39 -26.5 -65.5t-65.5 -26.5h-33q-39 0 -65.5 26.5t-26.5 65.5v92
q0 68 23.5 127t66.5 106l162 185q31 35 44 74.5t13 78.5v15q0 63 -44 108t-107 45h-16q-27 0 -54.5 -9t-50.5 -26l-76 -49q-23 -14 -53 -14q-49 0 -80 47l-6 10q-18 30 -18 55zM356 109v16q0 57 39 96t97 39h16q55 0 95 -39t40 -96v-16q0 -57 -40 -96.5t-95 -39.5h-16
q-57 0 -96.5 39.5t-39.5 96.5z" />
    <glyph glyph-name="at" unicode="@" horiz-adv-x="1957" 
d="M240 319v535q0 123 47 230.5t128 187.5t188.5 126t230.5 46h290q123 0 230.5 -46t188.5 -126t128 -187.5t47 -230.5v-430q0 -66 -24.5 -123t-67.5 -99t-100.5 -65.5t-122.5 -23.5q-68 0 -128.5 23.5t-103.5 68.5q-8 12 -18 12q-12 0 -18 -6q-8 -8 -19.5 -18.5
t-15.5 -14.5q-35 -27 -75 -46t-93 -19q-63 0 -119.5 23.5t-99.5 64.5t-67.5 97t-24.5 122t24.5 121t67.5 96t99 64.5t120 23.5h112q16 0 28.5 12.5t12.5 28.5v18q0 39 -27.5 68t-66.5 29q-51 0 -104 -35l-80 -49q-25 -14 -51 -15q-20 0 -43 11.5t-45 50.5q-14 23 -15 51
q0 23 9.5 42t35.5 36q12 8 33 19l49 28q41 23 93.5 39t117.5 16q63 0 119.5 -23.5t99.5 -64.5t68 -96t25 -121v-358q0 -41 29.5 -73t70.5 -32t69.5 32t28.5 73v456q0 78 -29.5 146.5t-81 121t-120 83t-146.5 30.5h-290q-78 0 -147 -29.5t-120 -82t-80.5 -121t-29.5 -148.5
v-561q0 -78 29.5 -147.5t80.5 -121.5t120 -82t147 -30h444q39 0 65.5 -25.5t26.5 -66.5v-12q0 -39 -26.5 -65.5t-65.5 -26.5h-444q-123 0 -230.5 46t-188.5 126t-128 187t-47 230zM838 406q0 -39 27.5 -69t66.5 -30q35 0 63.5 15.5t57.5 39.5l20 17q10 10 11 19.5t1 21.5v80
q0 16 -12 28.5t-29 12.5h-112q-39 0 -66.5 -29t-27.5 -70v-36z" />
    <glyph glyph-name="A" unicode="A" horiz-adv-x="1187" 
d="M135 74q0 10 1 18t3 19l240 1185q12 59 53 103.5t107 44.5h110q66 0 107 -44t53 -104l240 -1185q2 -10 3 -18.5t1 -18.5q0 -47 -30 -66.5t-67 -19.5h-6q-39 0 -63.5 22.5t-32.5 63.5l-33 166q-4 25 -20.5 43t-42.5 18h-328q-27 0 -43 -18.5t-20 -42.5l-33 -166
q-8 -41 -33 -63.5t-63 -22.5h-7q-37 0 -66.5 19.5t-29.5 66.5zM424 516q0 -12 8 -21.5t29 -9.5h266q20 0 28.5 9.5t8.5 21.5q0 10 -4 31l-139 694q-4 27 -27 27t-27 -27l-139 -694q-4 -21 -4 -31z" />
    <glyph glyph-name="B" unicode="B" horiz-adv-x="1312" 
d="M272 92v1233q0 39 27 65.5t66 26.5h319q84 0 156.5 -30.5t126 -85t85 -126t31.5 -155.5q0 -141 -84 -244q-16 -20 -16 -41q0 -23 18 -41q55 -53 85 -125.5t30 -156.5q0 -86 -32.5 -161t-89 -130t-131.5 -88t-161 -33h-337q-39 0 -66 26.5t-27 65.5zM489 252
q0 -25 17.5 -41t42.5 -16h145q86 0 145.5 59t59.5 145v21q0 86 -59.5 145.5t-145.5 59.5h-145q-25 0 -42.5 -16.5t-17.5 -41.5v-315zM489 879q0 -25 17.5 -42.5t42.5 -17.5h127q39 0 73.5 15.5t60.5 41t41 61.5t15 75v18q0 39 -15 74t-41 61.5t-60.5 42t-73.5 15.5h-127
q-25 0 -42.5 -16.5t-17.5 -41.5v-286z" />
    <glyph glyph-name="C" unicode="C" horiz-adv-x="1126" 
d="M197 492v434q0 53 1 89t4 60.5t7 42t8 31.5q20 66 59 119t91.5 93t117 61.5t136.5 21.5t127 -17.5t102 -42.5q33 -16 49 -26l39 -25q31 -20 42 -40.5t11 -43.5q0 -25 -18 -55l-6 -10q-31 -47 -80 -47q-31 0 -53 14l-91 59q-29 18 -57.5 28.5t-64.5 10.5q-66 0 -116 -34.5
t-73 -92.5q-4 -8 -7 -20t-6 -32.5t-4 -52.5t-1 -79v-459q0 -47 1 -78.5t4 -52t6 -32t7 -21.5q23 -57 73 -92t116 -35q37 0 65.5 10t56.5 29l91 59q23 14 53 15q49 0 80 -48l6 -10q18 -31 18 -55q0 -23 -11 -43.5t-42 -40.5l-39 -25q-16 -10 -49 -26q-47 -25 -102.5 -42.5
t-126.5 -17.5q-72 0 -136.5 21.5t-117 61.5t-91 94.5t-59.5 117.5q-4 14 -8 31.5t-7 42.5t-4 61t-1 89z" />
    <glyph glyph-name="D" unicode="D" horiz-adv-x="1314" 
d="M272 92v1233q0 39 27 65.5t66 26.5h329q72 0 136.5 -21.5t116.5 -61.5t91 -93t60 -119q4 -14 8 -31.5t7 -42t4 -60.5t1 -89v-381q0 -53 -1 -89t-4 -60.5t-7 -42t-8 -31.5q-20 -63 -59.5 -117.5t-91.5 -94.5t-116.5 -61.5t-136.5 -21.5h-329q-39 0 -66 26.5t-27 65.5z
M489 252q0 -25 17.5 -41t42.5 -16h145q66 0 116 34.5t73 92.5q4 10 7 21t6 31.5t4 52.5t1 79v405q0 47 -1 79t-4 52.5t-6 32.5t-7 21q-23 57 -73 92t-116 35h-145q-25 0 -42.5 -16.5t-17.5 -41.5v-913z" />
    <glyph glyph-name="E" unicode="E" horiz-adv-x="1175" 
d="M272 92v1233q0 39 27 65.5t66 26.5h585q39 0 64.5 -26.5t25.5 -65.5v-10q0 -41 -25.5 -66.5t-64.5 -25.5h-401q-25 0 -42.5 -16.5t-17.5 -41.5v-291q0 -25 17.5 -42t42.5 -17h229q39 0 65.5 -26.5t26.5 -65.5t-26.5 -65.5t-65.5 -26.5h-229q-25 0 -42.5 -16.5
t-17.5 -41.5v-321q0 -25 17.5 -41t42.5 -16h401q39 0 64.5 -27t25.5 -66v-10q0 -39 -25.5 -65.5t-64.5 -26.5h-585q-39 0 -66 26.5t-27 65.5z" />
    <glyph glyph-name="F" unicode="F" horiz-adv-x="1175" 
d="M272 92v1233q0 39 27 65.5t66 26.5h585q39 0 64.5 -26.5t25.5 -65.5v-10q0 -41 -25.5 -66.5t-64.5 -25.5h-401q-25 0 -42.5 -16.5t-17.5 -41.5v-291q0 -25 17.5 -42t42.5 -17h229q39 0 65.5 -26.5t26.5 -65.5t-26.5 -65.5t-65.5 -26.5h-229q-25 0 -42.5 -16.5
t-17.5 -41.5v-481q0 -39 -26.5 -65.5t-65.5 -26.5h-32q-39 0 -66 26.5t-27 65.5z" />
    <glyph glyph-name="G" unicode="G" horiz-adv-x="1230" 
d="M197 492v434q0 53 1 89t4 60.5t7 42t8 31.5q20 66 59 119t91.5 93t117 61.5t136.5 21.5t127 -17.5t102 -42.5q33 -16 49 -26l39 -25q31 -20 42 -40.5t11 -43.5q0 -25 -18 -55l-6 -10q-31 -47 -80 -47q-31 0 -53 14l-91 59q-29 18 -57.5 28.5t-64.5 10.5q-66 0 -116 -34.5
t-73 -92.5q-4 -8 -7 -20t-6 -32.5t-4 -52.5t-1 -79v-459q0 -47 1 -78.5t4 -52t6 -32t7 -21.5q23 -57 73 -92t116 -35q35 0 61.5 14.5t56.5 38.5l19 17q10 10 12 19t2 22v311q0 16 -12 28.5t-29 12.5h-18q-39 0 -65.5 25.5t-26.5 66.5q0 39 26.5 65.5t65.5 26.5h182
q39 0 65.5 -26.5t26.5 -65.5v-641q0 -35 -23.5 -58.5t-58.5 -23.5q-29 0 -45 13.5t-24 31.5q-6 16 -17 16q-8 0 -16 -6l-27 -20q-29 -23 -67.5 -42.5t-92.5 -19.5q-70 0 -133 21.5t-115.5 61.5t-91 94.5t-59.5 117.5q-4 14 -8 31.5t-7 42.5t-4 61t-1 89z" />
    <glyph glyph-name="H" unicode="H" horiz-adv-x="1331" 
d="M272 92v1233q0 39 27 65.5t66 26.5h32q39 0 64.5 -26.5t25.5 -65.5v-451q0 -25 18.5 -42t41.5 -17h237q25 0 42.5 17.5t17.5 41.5v451q0 39 26.5 65.5t65.5 26.5h31q39 0 65.5 -26.5t26.5 -65.5v-1233q0 -39 -26.5 -65.5t-65.5 -26.5h-31q-39 0 -65.5 26.5t-26.5 65.5
v481q0 25 -17.5 41.5t-42.5 16.5h-237q-23 0 -41.5 -16.5t-18.5 -41.5v-481q0 -39 -25.5 -65.5t-64.5 -26.5h-32q-39 0 -66 26.5t-27 65.5z" />
    <glyph glyph-name="I" unicode="I" horiz-adv-x="759" 
d="M272 92v1233q0 39 27 65.5t66 26.5h32q39 0 64.5 -26.5t25.5 -65.5v-1233q0 -39 -25.5 -65.5t-64.5 -26.5h-32q-39 0 -66 26.5t-27 65.5z" />
    <glyph glyph-name="J" unicode="J" horiz-adv-x="942" 
d="M45 160q0 25 18 55l7 10q31 47 80 47q31 0 53 -14l84 -55q55 -35 106 -35q39 0 66.5 28.5t27.5 67.5v928q0 16 -12 28.5t-29 12.5h-90q-39 0 -65.5 25.5t-26.5 66.5q0 39 26.5 65.5t65.5 26.5h254q39 0 65.5 -26.5t26.5 -65.5v-1046q0 -66 -24.5 -121.5t-66.5 -96.5
t-98 -64.5t-120 -23.5q-66 0 -118 16.5t-91 37.5l-48 26q-19 10 -38 23q-31 20 -42 40.5t-11 43.5z" />
    <glyph glyph-name="K" unicode="K" horiz-adv-x="1245" 
d="M272 92v1233q0 39 27 65.5t66 26.5h30q39 0 65.5 -26.5t26.5 -65.5v-444q0 -29 16.5 -44.5t43.5 -15.5h12q18 0 34.5 9.5t22.5 25.5l234 510q27 63 92 64q39 0 66.5 -28t27.5 -69q0 -14 -4 -26.5t-8 -22.5l-238 -530q-10 -20 -10 -35q0 -14 10 -35l250 -547
q12 -25 13 -53q0 -43 -28 -70.5t-67 -27.5q-61 0 -92 65l-254 541q-14 31 -51 31h-10q-25 0 -42.5 -16.5t-17.5 -41.5v-473q0 -39 -26.5 -65.5t-65.5 -26.5h-30q-39 0 -66 26.5t-27 65.5z" />
    <glyph glyph-name="L" unicode="L" horiz-adv-x="1013" 
d="M272 92v1233q0 39 27 65.5t66 26.5h32q39 0 65.5 -26.5t26.5 -65.5v-1073q0 -25 17.5 -41t42.5 -16h344q39 0 65.5 -27t26.5 -66v-10q0 -39 -26.5 -65.5t-65.5 -26.5h-528q-39 0 -66 26.5t-27 65.5z" />
    <glyph glyph-name="M" unicode="M" horiz-adv-x="1552" 
d="M272 92v1233q0 39 27 65.5t66 26.5h28q37 0 68 -17.5t53 -60.5l203 -403q23 -41 33 -73t26 -32t26.5 32t33.5 73l202 403q23 43 53.5 60.5t67.5 17.5h29q39 0 65.5 -26.5t26.5 -65.5v-1233q0 -39 -26.5 -65.5t-65.5 -26.5h-33q-39 0 -64.5 26.5t-25.5 65.5v703
q0 59 2 82.5t2 37.5q0 31 -18 31q-16 0 -28.5 -36t-45.5 -101l-66 -131q-16 -33 -43.5 -55.5t-64.5 -22.5h-53q-37 0 -65 22.5t-44 55.5l-66 131q-33 66 -45 101.5t-28 35.5q-18 0 -19 -31q0 -14 2 -37.5t2 -82.5v-703q0 -39 -25.5 -65.5t-64.5 -26.5h-32q-39 0 -66 26.5
t-27 65.5z" />
    <glyph glyph-name="N" unicode="N" horiz-adv-x="1333" 
d="M272 92v1233q0 39 27 65.5t66 26.5h18q37 0 69.5 -16.5t51.5 -61.5l264 -616q29 -70 38 -104.5t25 -34.5q18 0 19 30q0 14 -2 38t-2 83v590q0 39 26.5 65.5t65.5 26.5h31q39 0 65.5 -26.5t26.5 -65.5v-1233q0 -39 -26.5 -65.5t-65.5 -26.5h-19q-37 0 -69.5 16.5
t-51.5 61.5l-264 616q-29 70 -38 105t-25 35q-18 0 -19 -31q0 -14 2 -38t2 -83v-590q0 -39 -26.5 -65.5t-65.5 -26.5h-30q-39 0 -66 26.5t-27 65.5z" />
    <glyph glyph-name="O" unicode="O" horiz-adv-x="1241" 
d="M197 492v434q0 53 1 89t4 60.5t7 42t8 31.5q20 66 59 119t91.5 93t117 61.5t136.5 21.5t136 -21.5t116.5 -61.5t91.5 -93.5t59 -118.5q4 -14 8 -31.5t7 -42t4 -60.5t1 -89v-434q0 -53 -1 -89t-4 -61t-7 -42t-8 -32q-20 -63 -59 -117.5t-91.5 -94.5t-117 -61.5
t-135.5 -21.5q-72 0 -136.5 21.5t-117 61.5t-91 94.5t-59.5 117.5q-4 14 -8 31.5t-7 42.5t-4 61t-1 89zM414 479q0 -47 1 -78.5t4 -52t6 -32t7 -21.5q23 -57 73 -92t116 -35t115.5 35t72.5 92q4 10 7 21.5t6 32t4 52t1 78.5v459q0 47 -1 79t-4 52.5t-6 32.5t-7 20
q-23 57 -73 92t-115 35q-66 0 -116 -34.5t-73 -92.5q-4 -8 -7 -20t-6 -32.5t-4 -52.5t-1 -79v-459z" />
    <glyph glyph-name="P" unicode="P" horiz-adv-x="1251" 
d="M272 92v1233q0 39 27 65.5t66 26.5h327q72 0 136.5 -21.5t116.5 -61.5t91 -93t60 -119q10 -29 15 -67.5t5 -112.5t-5 -112.5t-15 -67.5q-20 -63 -59.5 -117.5t-91.5 -94.5t-116.5 -61.5t-136.5 -21.5h-145q-25 0 -42.5 -18.5t-17.5 -42.5v-314q0 -39 -26.5 -65.5
t-65.5 -26.5h-30q-39 0 -66 26.5t-27 65.5zM487 721q0 -23 17.5 -41t42.5 -18h145q66 0 116 34.5t73 91.5q8 18 13 48t5 94v24q0 63 -5 93t-13 49q-23 57 -73 92t-116 35h-145q-25 0 -42.5 -16.5t-17.5 -41.5v-444z" />
    <glyph glyph-name="Q" unicode="Q" horiz-adv-x="1241" 
d="M197 492v434q0 53 1 89t4 60.5t7 42t8 31.5q20 66 59 119t91.5 93t117 61.5t136.5 21.5t136 -21.5t116.5 -61.5t91.5 -93.5t59 -118.5q4 -14 8 -31.5t7 -42t4 -60.5t1 -89v-434q0 -53 -1 -89t-4 -61t-7 -42t-8 -32q-4 -16 -13 -35l-16 -30q-4 -8 -4 -17q0 -8 10 -18
l17 -14q25 -25 24 -64q0 -37 -26.5 -63.5t-63.5 -26.5q-39 0 -63 25l-10 10q-8 8 -17 8q-4 0 -6 -1l-10 -5q-49 -29 -105.5 -46.5t-119.5 -17.5q-72 0 -136.5 21.5t-117 61.5t-91 94.5t-59.5 117.5q-4 14 -8 31.5t-7 42.5t-4 61t-1 89zM414 479q0 -47 1 -78.5t4 -52t6 -32
t7 -21.5q23 -57 73 -92t116 -35q16 0 33.5 2t31.5 8q16 6 16 21q0 10 -12 22l-45 47q-25 25 -24 64q0 37 26.5 63.5t63.5 26.5q39 0 63 -25l8 -8q10 -10 21 -10q18 0 22 29q2 16 2 32v39v459q0 47 -1 79t-4 52.5t-6 32.5t-7 20q-23 57 -73 92t-115 35q-66 0 -116 -34.5
t-73 -92.5q-4 -8 -7 -20t-6 -32.5t-4 -52.5t-1 -79v-459z" />
    <glyph glyph-name="R" unicode="R" horiz-adv-x="1314" 
d="M272 92v1233q0 39 27 65.5t66 26.5h329q72 0 136.5 -21.5t116.5 -61.5t91 -93t60 -119q10 -29 15 -67.5t5 -112.5t-5 -112.5t-15 -67.5q-25 -80 -77 -141.5t-124 -102.5q-16 -10 -16 -22q0 -4 8 -21l172 -325q14 -29 14 -52q0 -43 -30.5 -70.5t-69.5 -27.5q-66 0 -96 59
l-201 379q-8 14 -22.5 21.5t-30.5 7.5h-76q-25 0 -42.5 -18.5t-17.5 -42.5v-314q0 -39 -26.5 -65.5t-65.5 -26.5h-32q-39 0 -66 26.5t-27 65.5zM489 721q0 -23 17.5 -41t42.5 -18h145q66 0 116 34.5t73 91.5q8 18 13 48t5 94v24q0 63 -5 93t-13 49q-23 57 -73 92t-116 35
h-145q-25 0 -42.5 -16.5t-17.5 -41.5v-444z" />
    <glyph glyph-name="S" unicode="S" horiz-adv-x="1187" 
d="M197 1044q0 84 32.5 158t88 127t128 84t152.5 31q72 0 127 -17.5t102 -42.5q33 -16 50 -26l38 -25q31 -20 42.5 -40.5t11.5 -43.5q0 -25 -19 -55l-6 -10q-31 -47 -80 -47q-31 0 -53 14q-10 6 -33.5 22.5t-56.5 36.5q-29 18 -57.5 28.5t-65.5 10.5q-39 0 -72.5 -16
t-60.5 -43t-42 -62.5t-15 -76.5t17 -75t46 -63q8 -8 24.5 -19t69.5 -40l140 -76l92 -53q31 -18 49 -35q68 -57 106.5 -138t38.5 -173q0 -86 -33.5 -161t-90 -129t-131 -85t-156.5 -31q-72 0 -127.5 17.5t-102.5 42.5q-33 16 -49 26l-39 25q-31 20 -42 40.5t-11 43.5
q0 25 18 55l6 10q31 47 80 48q31 0 54 -15l90 -59q29 -18 57.5 -28.5t65.5 -10.5q41 0 77.5 16.5t64.5 44t43 65.5t15 79q0 84 -61 145q-14 14 -33.5 26.5t-73.5 41.5l-151 82q-61 35 -85 49t-42 31q-66 55 -101.5 132.5t-35.5 163.5z" />
    <glyph glyph-name="T" unicode="T" 
d="M135 1315v10q0 39 26.5 65.5t65.5 26.5h611q39 0 65.5 -26.5t26.5 -65.5v-10q0 -41 -26.5 -66.5t-65.5 -25.5h-156q-16 0 -28.5 -12.5t-12.5 -28.5v-1090q0 -39 -26.5 -65.5t-65.5 -26.5h-33q-39 0 -65.5 26.5t-26.5 65.5v1090q0 16 -12.5 28.5t-28.5 12.5h-156
q-39 0 -65.5 25.5t-26.5 66.5z" />
    <glyph glyph-name="U" unicode="U" horiz-adv-x="1323" 
d="M240 389v936q0 39 26.5 65.5t65.5 26.5h33q39 0 65.5 -26.5t26.5 -65.5v-950q0 -43 16 -80t44 -65.5t64.5 -45t80.5 -16.5q43 0 79.5 16.5t64.5 45t44 65.5t16 80v950q0 39 27 65.5t65 26.5h33q39 0 65.5 -26.5t26.5 -65.5v-936q0 -86 -33.5 -161.5t-91 -132t-134 -89.5
t-162.5 -33q-88 0 -165 33t-134.5 89.5t-90 132t-32.5 161.5z" />
    <glyph glyph-name="V" unicode="V" horiz-adv-x="1060" 
d="M72 1343q0 47 29.5 67t66.5 20h6q39 0 63.5 -23t32.5 -64l234 -1167q4 -27 26 -26q23 0 27 26l234 1167q8 41 32.5 64t63.5 23h6q37 0 66.5 -19.5t29.5 -67.5q0 -10 -1 -18t-3 -18l-240 -1186q-12 -59 -53 -103.5t-106 -44.5h-111q-66 0 -106.5 44t-53.5 104l-239 1186
q-2 10 -3 18t-1 18z" />
    <glyph glyph-name="W" unicode="W" horiz-adv-x="1675" 
d="M106 1343q0 47 30 67t67 20h6q39 0 64.5 -23t31.5 -64l189 -1167q4 -27 26 -26q23 0 27 26l186 1149q6 37 29.5 64.5t64.5 27.5h21q41 0 64.5 -27.5t29.5 -64.5l186 -1149q4 -27 27 -26q23 0 27 26l188 1167q6 41 31.5 64t64.5 23h7q37 0 66.5 -19.5t29.5 -67.5
q0 -10 -1 -18t-3 -18l-191 -1186q-10 -59 -52 -103.5t-108 -44.5h-102q-66 0 -107.5 44t-52.5 104l-73 483q-6 37 -11 85l-8 92q-4 44 -6 79t-2 47q0 14 -14 15q-14 0 -15 -15q0 -12 -2 -47t-6 -79l-8 -92q-4 -48 -10 -85l-74 -483q-10 -59 -52 -103.5t-108 -44.5h-102
q-66 0 -108 44t-52 104l-190 1186q-2 10 -3.5 18t-1.5 18z" />
    <glyph glyph-name="X" unicode="X" horiz-adv-x="1093" 
d="M106 84q0 14 3.5 26.5t7.5 22.5l250 586q6 18 6 29q0 14 -6 28l-195 508q-4 10 -8 25.5t-4 25.5q0 41 27.5 68t68.5 27q29 0 53.5 -14.5t36.5 -49.5l150 -395q16 -43 25 -60.5t26 -17.5q16 0 25.5 17.5t25.5 60.5l150 395q12 35 36.5 49.5t55.5 14.5q39 0 66.5 -28
t27.5 -69q0 -14 -3 -26.5t-7 -22.5l-195 -508q-6 -14 -6 -28q0 -10 6 -29l248 -586q10 -25 10 -49q0 -43 -27.5 -70.5t-66.5 -27.5q-66 0 -92 65l-203 473q-18 43 -26.5 60.5t-24.5 17.5t-24.5 -17.5t-26.5 -60.5l-203 -473q-29 -66 -92 -65q-39 0 -67 27.5t-28 70.5z" />
    <glyph glyph-name="Y" unicode="Y" horiz-adv-x="1097" 
d="M135 1335q0 41 27.5 68t68.5 27q29 0 53.5 -14.5t37.5 -49.5l176 -405q18 -43 26 -71t25 -28q16 0 24.5 28t26.5 71l176 405q12 35 37 49.5t53 14.5q41 0 69 -27t28 -68q0 -10 -4.5 -25.5t-8.5 -25.5l-284 -639q-4 -8 -6.5 -14t-2.5 -13v-526q0 -39 -26.5 -65.5
t-65.5 -26.5h-33q-39 0 -65.5 26.5t-26.5 65.5v526q0 6 -2 12.5t-6 14.5l-285 639q-4 10 -8 25.5t-4 25.5z" />
    <glyph glyph-name="Z" unicode="Z" horiz-adv-x="917" 
d="M106 92v6q0 18 9 39l407 1047q2 4 4 10t2 10q0 18 -22 19h-285q-39 0 -65.5 25.5t-26.5 66.5v10q0 39 26.5 65.5t65.5 26.5h469q39 0 65.5 -26.5t26.5 -65.5v-6q0 -18 -8 -39l-407 -1047q-2 -4 -4.5 -10t-2.5 -10q0 -18 23 -18h336q39 0 65.5 -27t26.5 -66v-10
q0 -39 -26.5 -65.5t-65.5 -26.5h-520q-39 0 -66 26.5t-27 65.5z" />
    <glyph glyph-name="bracketleft" unicode="[" horiz-adv-x="903" 
d="M365 -369v1803q0 39 26.5 64.5t65.5 25.5h233q39 0 65.5 -25.5t26.5 -64.5t-26.5 -66t-65.5 -27h-51q-25 0 -42 -16t-17 -41v-1503q0 -25 17 -41t42 -16h51q39 0 65.5 -26t26.5 -67q0 -39 -26.5 -64.5t-65.5 -25.5h-233q-39 0 -65.5 25.5t-26.5 64.5z" />
    <glyph glyph-name="backslash" unicode="\" horiz-adv-x="1103" 
d="M164 1597v13q0 39 26.5 66.5t65.5 27.5q29 0 54.5 -17.5t35.5 -46.5l498 -1546q4 -8 4 -15v-13q0 -39 -26.5 -67t-65.5 -28q-29 0 -54.5 17.5t-35.5 46.5l-498 1546q-4 10 -4 16z" />
    <glyph glyph-name="bracketright" unicode="]" horiz-adv-x="903" 
d="M121 -369q0 41 26.5 67t65.5 26h51q25 0 42.5 16t17.5 41v1503q0 25 -17.5 41t-42.5 16h-51q-39 0 -65.5 27t-26.5 66t26.5 64.5t65.5 25.5h236q39 0 64.5 -25.5t25.5 -64.5v-1803q0 -39 -26 -64.5t-64 -25.5h-236q-39 0 -65.5 25.5t-26.5 64.5z" />
    <glyph glyph-name="asciicircum" unicode="^" horiz-adv-x="1347" 
d="M442 1251q0 6 1 16.5t6 18.5l106 359q16 59 50 78.5t69 19.5t68.5 -19.5t50.5 -78.5l106 -359q4 -8 5 -18.5t1 -16.5q0 -10 -1 -17t-3 -15q-10 -33 -34.5 -48.5t-59.5 -15.5q-59 0 -86 64q-23 66 -28 103.5t-5 74.5q0 14 -14 14t-15 -14q0 -37 -5 -75t-27 -103
q-27 -63 -86 -64q-35 0 -59.5 15.5t-35.5 48.5q-2 8 -3 15t-1 17z" />
    <glyph glyph-name="underscore" unicode="_" horiz-adv-x="1032" 
d="M18 -203q0 39 28 65.5t67 26.5h807q39 0 66.5 -26.5t27.5 -65.5t-28 -65.5t-66 -26.5h-807q-39 0 -67 26.5t-28 65.5z" />
    <glyph glyph-name="grave" unicode="`" horiz-adv-x="987" 
d="M272 1430q0 14 4.5 30.5t16.5 32.5q43 63 102 63q29 0 56 -16l217 -156q35 -23 41 -46t6 -31q0 -23 -15 -50q-8 -16 -26.5 -32.5t-46.5 -16.5q-16 0 -30 5l-24 10l-241 108q-33 16 -46.5 43t-13.5 56z" />
    <glyph glyph-name="a" unicode="a" horiz-adv-x="1187" 
d="M135 74q0 10 1 18t3 19l240 1185q12 59 53 103.5t107 44.5h110q66 0 107 -44t53 -104l240 -1185q2 -10 3 -18.5t1 -18.5q0 -47 -30 -66.5t-67 -19.5h-6q-39 0 -63.5 22.5t-32.5 63.5l-33 166q-4 25 -20.5 43t-42.5 18h-328q-27 0 -43 -18.5t-20 -42.5l-33 -166
q-8 -41 -33 -63.5t-63 -22.5h-7q-37 0 -66.5 19.5t-29.5 66.5zM424 516q0 -12 8 -21.5t29 -9.5h266q20 0 28.5 9.5t8.5 21.5q0 10 -4 31l-139 694q-4 27 -27 27t-27 -27l-139 -694q-4 -21 -4 -31z" />
    <glyph glyph-name="b" unicode="b" horiz-adv-x="1312" 
d="M272 92v1233q0 39 27 65.5t66 26.5h319q84 0 156.5 -30.5t126 -85t85 -126t31.5 -155.5q0 -141 -84 -244q-16 -20 -16 -41q0 -23 18 -41q55 -53 85 -125.5t30 -156.5q0 -86 -32.5 -161t-89 -130t-131.5 -88t-161 -33h-337q-39 0 -66 26.5t-27 65.5zM489 252
q0 -25 17.5 -41t42.5 -16h145q86 0 145.5 59t59.5 145v21q0 86 -59.5 145.5t-145.5 59.5h-145q-25 0 -42.5 -16.5t-17.5 -41.5v-315zM489 879q0 -25 17.5 -42.5t42.5 -17.5h127q39 0 73.5 15.5t60.5 41t41 61.5t15 75v18q0 39 -15 74t-41 61.5t-60.5 42t-73.5 15.5h-127
q-25 0 -42.5 -16.5t-17.5 -41.5v-286z" />
    <glyph glyph-name="c" unicode="c" horiz-adv-x="1126" 
d="M197 492v434q0 53 1 89t4 60.5t7 42t8 31.5q20 66 59 119t91.5 93t117 61.5t136.5 21.5t127 -17.5t102 -42.5q33 -16 49 -26l39 -25q31 -20 42 -40.5t11 -43.5q0 -25 -18 -55l-6 -10q-31 -47 -80 -47q-31 0 -53 14l-91 59q-29 18 -57.5 28.5t-64.5 10.5q-66 0 -116 -34.5
t-73 -92.5q-4 -8 -7 -20t-6 -32.5t-4 -52.5t-1 -79v-459q0 -47 1 -78.5t4 -52t6 -32t7 -21.5q23 -57 73 -92t116 -35q37 0 65.5 10t56.5 29l91 59q23 14 53 15q49 0 80 -48l6 -10q18 -31 18 -55q0 -23 -11 -43.5t-42 -40.5l-39 -25q-16 -10 -49 -26q-47 -25 -102.5 -42.5
t-126.5 -17.5q-72 0 -136.5 21.5t-117 61.5t-91 94.5t-59.5 117.5q-4 14 -8 31.5t-7 42.5t-4 61t-1 89z" />
    <glyph glyph-name="d" unicode="d" horiz-adv-x="1314" 
d="M272 92v1233q0 39 27 65.5t66 26.5h329q72 0 136.5 -21.5t116.5 -61.5t91 -93t60 -119q4 -14 8 -31.5t7 -42t4 -60.5t1 -89v-381q0 -53 -1 -89t-4 -60.5t-7 -42t-8 -31.5q-20 -63 -59.5 -117.5t-91.5 -94.5t-116.5 -61.5t-136.5 -21.5h-329q-39 0 -66 26.5t-27 65.5z
M489 252q0 -25 17.5 -41t42.5 -16h145q66 0 116 34.5t73 92.5q4 10 7 21t6 31.5t4 52.5t1 79v405q0 47 -1 79t-4 52.5t-6 32.5t-7 21q-23 57 -73 92t-116 35h-145q-25 0 -42.5 -16.5t-17.5 -41.5v-913z" />
    <glyph glyph-name="e" unicode="e" horiz-adv-x="1175" 
d="M272 92v1233q0 39 27 65.5t66 26.5h585q39 0 64.5 -26.5t25.5 -65.5v-10q0 -41 -25.5 -66.5t-64.5 -25.5h-401q-25 0 -42.5 -16.5t-17.5 -41.5v-291q0 -25 17.5 -42t42.5 -17h229q39 0 65.5 -26.5t26.5 -65.5t-26.5 -65.5t-65.5 -26.5h-229q-25 0 -42.5 -16.5
t-17.5 -41.5v-321q0 -25 17.5 -41t42.5 -16h401q39 0 64.5 -27t25.5 -66v-10q0 -39 -25.5 -65.5t-64.5 -26.5h-585q-39 0 -66 26.5t-27 65.5z" />
    <glyph glyph-name="f" unicode="f" horiz-adv-x="1175" 
d="M272 92v1233q0 39 27 65.5t66 26.5h585q39 0 64.5 -26.5t25.5 -65.5v-10q0 -41 -25.5 -66.5t-64.5 -25.5h-401q-25 0 -42.5 -16.5t-17.5 -41.5v-291q0 -25 17.5 -42t42.5 -17h229q39 0 65.5 -26.5t26.5 -65.5t-26.5 -65.5t-65.5 -26.5h-229q-25 0 -42.5 -16.5
t-17.5 -41.5v-481q0 -39 -26.5 -65.5t-65.5 -26.5h-32q-39 0 -66 26.5t-27 65.5z" />
    <glyph glyph-name="g" unicode="g" horiz-adv-x="1230" 
d="M197 492v434q0 53 1 89t4 60.5t7 42t8 31.5q20 66 59 119t91.5 93t117 61.5t136.5 21.5t127 -17.5t102 -42.5q33 -16 49 -26l39 -25q31 -20 42 -40.5t11 -43.5q0 -25 -18 -55l-6 -10q-31 -47 -80 -47q-31 0 -53 14l-91 59q-29 18 -57.5 28.5t-64.5 10.5q-66 0 -116 -34.5
t-73 -92.5q-4 -8 -7 -20t-6 -32.5t-4 -52.5t-1 -79v-459q0 -47 1 -78.5t4 -52t6 -32t7 -21.5q23 -57 73 -92t116 -35q35 0 61.5 14.5t56.5 38.5l19 17q10 10 12 19t2 22v311q0 16 -12 28.5t-29 12.5h-18q-39 0 -65.5 25.5t-26.5 66.5q0 39 26.5 65.5t65.5 26.5h182
q39 0 65.5 -26.5t26.5 -65.5v-641q0 -35 -23.5 -58.5t-58.5 -23.5q-29 0 -45 13.5t-24 31.5q-6 16 -17 16q-8 0 -16 -6l-27 -20q-29 -23 -67.5 -42.5t-92.5 -19.5q-70 0 -133 21.5t-115.5 61.5t-91 94.5t-59.5 117.5q-4 14 -8 31.5t-7 42.5t-4 61t-1 89z" />
    <glyph glyph-name="h" unicode="h" horiz-adv-x="1331" 
d="M272 92v1233q0 39 27 65.5t66 26.5h32q39 0 64.5 -26.5t25.5 -65.5v-451q0 -25 18.5 -42t41.5 -17h237q25 0 42.5 17.5t17.5 41.5v451q0 39 26.5 65.5t65.5 26.5h31q39 0 65.5 -26.5t26.5 -65.5v-1233q0 -39 -26.5 -65.5t-65.5 -26.5h-31q-39 0 -65.5 26.5t-26.5 65.5
v481q0 25 -17.5 41.5t-42.5 16.5h-237q-23 0 -41.5 -16.5t-18.5 -41.5v-481q0 -39 -25.5 -65.5t-64.5 -26.5h-32q-39 0 -66 26.5t-27 65.5z" />
    <glyph glyph-name="i" unicode="i" horiz-adv-x="759" 
d="M272 92v1233q0 39 27 65.5t66 26.5h32q39 0 64.5 -26.5t25.5 -65.5v-1233q0 -39 -25.5 -65.5t-64.5 -26.5h-32q-39 0 -66 26.5t-27 65.5z" />
    <glyph glyph-name="j" unicode="j" horiz-adv-x="942" 
d="M45 160q0 25 18 55l7 10q31 47 80 47q31 0 53 -14l84 -55q55 -35 106 -35q39 0 66.5 28.5t27.5 67.5v928q0 16 -12 28.5t-29 12.5h-90q-39 0 -65.5 25.5t-26.5 66.5q0 39 26.5 65.5t65.5 26.5h254q39 0 65.5 -26.5t26.5 -65.5v-1046q0 -66 -24.5 -121.5t-66.5 -96.5
t-98 -64.5t-120 -23.5q-66 0 -118 16.5t-91 37.5l-48 26q-19 10 -38 23q-31 20 -42 40.5t-11 43.5z" />
    <glyph glyph-name="k" unicode="k" horiz-adv-x="1245" 
d="M272 92v1233q0 39 27 65.5t66 26.5h30q39 0 65.5 -26.5t26.5 -65.5v-444q0 -29 16.5 -44.5t43.5 -15.5h12q18 0 34.5 9.5t22.5 25.5l234 510q27 63 92 64q39 0 66.5 -28t27.5 -69q0 -14 -4 -26.5t-8 -22.5l-238 -530q-10 -20 -10 -35q0 -14 10 -35l250 -547
q12 -25 13 -53q0 -43 -28 -70.5t-67 -27.5q-61 0 -92 65l-254 541q-14 31 -51 31h-10q-25 0 -42.5 -16.5t-17.5 -41.5v-473q0 -39 -26.5 -65.5t-65.5 -26.5h-30q-39 0 -66 26.5t-27 65.5z" />
    <glyph glyph-name="l" unicode="l" horiz-adv-x="1013" 
d="M272 92v1233q0 39 27 65.5t66 26.5h32q39 0 65.5 -26.5t26.5 -65.5v-1073q0 -25 17.5 -41t42.5 -16h344q39 0 65.5 -27t26.5 -66v-10q0 -39 -26.5 -65.5t-65.5 -26.5h-528q-39 0 -66 26.5t-27 65.5z" />
    <glyph glyph-name="m" unicode="m" horiz-adv-x="1552" 
d="M272 92v1233q0 39 27 65.5t66 26.5h28q37 0 68 -17.5t53 -60.5l203 -403q23 -41 33 -73t26 -32t26.5 32t33.5 73l202 403q23 43 53.5 60.5t67.5 17.5h29q39 0 65.5 -26.5t26.5 -65.5v-1233q0 -39 -26.5 -65.5t-65.5 -26.5h-33q-39 0 -64.5 26.5t-25.5 65.5v703
q0 59 2 82.5t2 37.5q0 31 -18 31q-16 0 -28.5 -36t-45.5 -101l-66 -131q-16 -33 -43.5 -55.5t-64.5 -22.5h-53q-37 0 -65 22.5t-44 55.5l-66 131q-33 66 -45 101.5t-28 35.5q-18 0 -19 -31q0 -14 2 -37.5t2 -82.5v-703q0 -39 -25.5 -65.5t-64.5 -26.5h-32q-39 0 -66 26.5
t-27 65.5z" />
    <glyph glyph-name="n" unicode="n" horiz-adv-x="1333" 
d="M272 92v1233q0 39 27 65.5t66 26.5h18q37 0 69.5 -16.5t51.5 -61.5l264 -616q29 -70 38 -104.5t25 -34.5q18 0 19 30q0 14 -2 38t-2 83v590q0 39 26.5 65.5t65.5 26.5h31q39 0 65.5 -26.5t26.5 -65.5v-1233q0 -39 -26.5 -65.5t-65.5 -26.5h-19q-37 0 -69.5 16.5
t-51.5 61.5l-264 616q-29 70 -38 105t-25 35q-18 0 -19 -31q0 -14 2 -38t2 -83v-590q0 -39 -26.5 -65.5t-65.5 -26.5h-30q-39 0 -66 26.5t-27 65.5z" />
    <glyph glyph-name="o" unicode="o" horiz-adv-x="1241" 
d="M197 492v434q0 53 1 89t4 60.5t7 42t8 31.5q20 66 59 119t91.5 93t117 61.5t136.5 21.5t136 -21.5t116.5 -61.5t91.5 -93.5t59 -118.5q4 -14 8 -31.5t7 -42t4 -60.5t1 -89v-434q0 -53 -1 -89t-4 -61t-7 -42t-8 -32q-20 -63 -59 -117.5t-91.5 -94.5t-117 -61.5
t-135.5 -21.5q-72 0 -136.5 21.5t-117 61.5t-91 94.5t-59.5 117.5q-4 14 -8 31.5t-7 42.5t-4 61t-1 89zM414 479q0 -47 1 -78.5t4 -52t6 -32t7 -21.5q23 -57 73 -92t116 -35t115.5 35t72.5 92q4 10 7 21.5t6 32t4 52t1 78.5v459q0 47 -1 79t-4 52.5t-6 32.5t-7 20
q-23 57 -73 92t-115 35q-66 0 -116 -34.5t-73 -92.5q-4 -8 -7 -20t-6 -32.5t-4 -52.5t-1 -79v-459z" />
    <glyph glyph-name="p" unicode="p" horiz-adv-x="1251" 
d="M272 92v1233q0 39 27 65.5t66 26.5h327q72 0 136.5 -21.5t116.5 -61.5t91 -93t60 -119q10 -29 15 -67.5t5 -112.5t-5 -112.5t-15 -67.5q-20 -63 -59.5 -117.5t-91.5 -94.5t-116.5 -61.5t-136.5 -21.5h-145q-25 0 -42.5 -18.5t-17.5 -42.5v-314q0 -39 -26.5 -65.5
t-65.5 -26.5h-30q-39 0 -66 26.5t-27 65.5zM487 721q0 -23 17.5 -41t42.5 -18h145q66 0 116 34.5t73 91.5q8 18 13 48t5 94v24q0 63 -5 93t-13 49q-23 57 -73 92t-116 35h-145q-25 0 -42.5 -16.5t-17.5 -41.5v-444z" />
    <glyph glyph-name="q" unicode="q" horiz-adv-x="1241" 
d="M197 492v434q0 53 1 89t4 60.5t7 42t8 31.5q20 66 59 119t91.5 93t117 61.5t136.5 21.5t136 -21.5t116.5 -61.5t91.5 -93.5t59 -118.5q4 -14 8 -31.5t7 -42t4 -60.5t1 -89v-434q0 -53 -1 -89t-4 -61t-7 -42t-8 -32q-4 -16 -13 -35l-16 -30q-4 -8 -4 -17q0 -8 10 -18
l17 -14q25 -25 24 -64q0 -37 -26.5 -63.5t-63.5 -26.5q-39 0 -63 25l-10 10q-8 8 -17 8q-4 0 -6 -1l-10 -5q-49 -29 -105.5 -46.5t-119.5 -17.5q-72 0 -136.5 21.5t-117 61.5t-91 94.5t-59.5 117.5q-4 14 -8 31.5t-7 42.5t-4 61t-1 89zM414 479q0 -47 1 -78.5t4 -52t6 -32
t7 -21.5q23 -57 73 -92t116 -35q16 0 33.5 2t31.5 8q16 6 16 21q0 10 -12 22l-45 47q-25 25 -24 64q0 37 26.5 63.5t63.5 26.5q39 0 63 -25l8 -8q10 -10 21 -10q18 0 22 29q2 16 2 32v39v459q0 47 -1 79t-4 52.5t-6 32.5t-7 20q-23 57 -73 92t-115 35q-66 0 -116 -34.5
t-73 -92.5q-4 -8 -7 -20t-6 -32.5t-4 -52.5t-1 -79v-459z" />
    <glyph glyph-name="r" unicode="r" horiz-adv-x="1314" 
d="M272 92v1233q0 39 27 65.5t66 26.5h329q72 0 136.5 -21.5t116.5 -61.5t91 -93t60 -119q10 -29 15 -67.5t5 -112.5t-5 -112.5t-15 -67.5q-25 -80 -77 -141.5t-124 -102.5q-16 -10 -16 -22q0 -4 8 -21l172 -325q14 -29 14 -52q0 -43 -30.5 -70.5t-69.5 -27.5q-66 0 -96 59
l-201 379q-8 14 -22.5 21.5t-30.5 7.5h-76q-25 0 -42.5 -18.5t-17.5 -42.5v-314q0 -39 -26.5 -65.5t-65.5 -26.5h-32q-39 0 -66 26.5t-27 65.5zM489 721q0 -23 17.5 -41t42.5 -18h145q66 0 116 34.5t73 91.5q8 18 13 48t5 94v24q0 63 -5 93t-13 49q-23 57 -73 92t-116 35
h-145q-25 0 -42.5 -16.5t-17.5 -41.5v-444z" />
    <glyph glyph-name="s" unicode="s" horiz-adv-x="1187" 
d="M197 1044q0 84 32.5 158t88 127t128 84t152.5 31q72 0 127 -17.5t102 -42.5q33 -16 50 -26l38 -25q31 -20 42.5 -40.5t11.5 -43.5q0 -25 -19 -55l-6 -10q-31 -47 -80 -47q-31 0 -53 14q-10 6 -33.5 22.5t-56.5 36.5q-29 18 -57.5 28.5t-65.5 10.5q-39 0 -72.5 -16
t-60.5 -43t-42 -62.5t-15 -76.5t17 -75t46 -63q8 -8 24.5 -19t69.5 -40l140 -76l92 -53q31 -18 49 -35q68 -57 106.5 -138t38.5 -173q0 -86 -33.5 -161t-90 -129t-131 -85t-156.5 -31q-72 0 -127.5 17.5t-102.5 42.5q-33 16 -49 26l-39 25q-31 20 -42 40.5t-11 43.5
q0 25 18 55l6 10q31 47 80 48q31 0 54 -15l90 -59q29 -18 57.5 -28.5t65.5 -10.5q41 0 77.5 16.5t64.5 44t43 65.5t15 79q0 84 -61 145q-14 14 -33.5 26.5t-73.5 41.5l-151 82q-61 35 -85 49t-42 31q-66 55 -101.5 132.5t-35.5 163.5z" />
    <glyph glyph-name="t" unicode="t" 
d="M135 1315v10q0 39 26.5 65.5t65.5 26.5h611q39 0 65.5 -26.5t26.5 -65.5v-10q0 -41 -26.5 -66.5t-65.5 -25.5h-156q-16 0 -28.5 -12.5t-12.5 -28.5v-1090q0 -39 -26.5 -65.5t-65.5 -26.5h-33q-39 0 -65.5 26.5t-26.5 65.5v1090q0 16 -12.5 28.5t-28.5 12.5h-156
q-39 0 -65.5 25.5t-26.5 66.5z" />
    <glyph glyph-name="u" unicode="u" horiz-adv-x="1323" 
d="M240 389v936q0 39 26.5 65.5t65.5 26.5h33q39 0 65.5 -26.5t26.5 -65.5v-950q0 -43 16 -80t44 -65.5t64.5 -45t80.5 -16.5q43 0 79.5 16.5t64.5 45t44 65.5t16 80v950q0 39 27 65.5t65 26.5h33q39 0 65.5 -26.5t26.5 -65.5v-936q0 -86 -33.5 -161.5t-91 -132t-134 -89.5
t-162.5 -33q-88 0 -165 33t-134.5 89.5t-90 132t-32.5 161.5z" />
    <glyph glyph-name="v" unicode="v" horiz-adv-x="1060" 
d="M72 1343q0 47 29.5 67t66.5 20h6q39 0 63.5 -23t32.5 -64l234 -1167q4 -27 26 -26q23 0 27 26l234 1167q8 41 32.5 64t63.5 23h6q37 0 66.5 -19.5t29.5 -67.5q0 -10 -1 -18t-3 -18l-240 -1186q-12 -59 -53 -103.5t-106 -44.5h-111q-66 0 -106.5 44t-53.5 104l-239 1186
q-2 10 -3 18t-1 18z" />
    <glyph glyph-name="w" unicode="w" horiz-adv-x="1675" 
d="M106 1343q0 47 30 67t67 20h6q39 0 64.5 -23t31.5 -64l189 -1167q4 -27 26 -26q23 0 27 26l186 1149q6 37 29.5 64.5t64.5 27.5h21q41 0 64.5 -27.5t29.5 -64.5l186 -1149q4 -27 27 -26q23 0 27 26l188 1167q6 41 31.5 64t64.5 23h7q37 0 66.5 -19.5t29.5 -67.5
q0 -10 -1 -18t-3 -18l-191 -1186q-10 -59 -52 -103.5t-108 -44.5h-102q-66 0 -107.5 44t-52.5 104l-73 483q-6 37 -11 85l-8 92q-4 44 -6 79t-2 47q0 14 -14 15q-14 0 -15 -15q0 -12 -2 -47t-6 -79l-8 -92q-4 -48 -10 -85l-74 -483q-10 -59 -52 -103.5t-108 -44.5h-102
q-66 0 -108 44t-52 104l-190 1186q-2 10 -3.5 18t-1.5 18z" />
    <glyph glyph-name="x" unicode="x" horiz-adv-x="1093" 
d="M106 84q0 14 3.5 26.5t7.5 22.5l250 586q6 18 6 29q0 14 -6 28l-195 508q-4 10 -8 25.5t-4 25.5q0 41 27.5 68t68.5 27q29 0 53.5 -14.5t36.5 -49.5l150 -395q16 -43 25 -60.5t26 -17.5q16 0 25.5 17.5t25.5 60.5l150 395q12 35 36.5 49.5t55.5 14.5q39 0 66.5 -28
t27.5 -69q0 -14 -3 -26.5t-7 -22.5l-195 -508q-6 -14 -6 -28q0 -10 6 -29l248 -586q10 -25 10 -49q0 -43 -27.5 -70.5t-66.5 -27.5q-66 0 -92 65l-203 473q-18 43 -26.5 60.5t-24.5 17.5t-24.5 -17.5t-26.5 -60.5l-203 -473q-29 -66 -92 -65q-39 0 -67 27.5t-28 70.5z" />
    <glyph glyph-name="y" unicode="y" horiz-adv-x="1097" 
d="M135 1335q0 41 27.5 68t68.5 27q29 0 53.5 -14.5t37.5 -49.5l176 -405q18 -43 26 -71t25 -28q16 0 24.5 28t26.5 71l176 405q12 35 37 49.5t53 14.5q41 0 69 -27t28 -68q0 -10 -4.5 -25.5t-8.5 -25.5l-284 -639q-4 -8 -6.5 -14t-2.5 -13v-526q0 -39 -26.5 -65.5
t-65.5 -26.5h-33q-39 0 -65.5 26.5t-26.5 65.5v526q0 6 -2 12.5t-6 14.5l-285 639q-4 10 -8 25.5t-4 25.5z" />
    <glyph glyph-name="z" unicode="z" horiz-adv-x="917" 
d="M106 92v6q0 18 9 39l407 1047q2 4 4 10t2 10q0 18 -22 19h-285q-39 0 -65.5 25.5t-26.5 66.5v10q0 39 26.5 65.5t65.5 26.5h469q39 0 65.5 -26.5t26.5 -65.5v-6q0 -18 -8 -39l-407 -1047q-2 -4 -4.5 -10t-2.5 -10q0 -18 23 -18h336q39 0 65.5 -27t26.5 -66v-10
q0 -39 -26.5 -65.5t-65.5 -26.5h-520q-39 0 -66 26.5t-27 65.5z" />
    <glyph glyph-name="braceleft" unicode="{" horiz-adv-x="968" 
d="M240 627q0 33 24.5 57.5t57.5 24.5h67q35 0 57.5 22.5t22.5 56.5v680q0 49 19.5 93.5t53 78t78 53t93.5 19.5h43q39 0 65.5 -26.5t26.5 -65.5t-26.5 -65.5t-65.5 -26.5h-11q-25 0 -42 -17.5t-17 -42.5v-536q0 -82 -13.5 -136.5t-35.5 -101.5l-8 -18q-12 -27 -13 -49
q0 -14 4.5 -26.5t8.5 -22.5l8 -19q23 -47 36 -102.5t13 -137.5v-536q0 -23 17.5 -41t41.5 -18h11q39 0 65.5 -26t26.5 -67q0 -39 -26.5 -64.5t-65.5 -25.5h-43q-49 0 -93.5 19.5t-78 52.5t-53 77t-19.5 93v684q0 35 -22.5 57.5t-57.5 22.5h-67q-33 0 -57.5 23.5t-24.5 56.5z
" />
    <glyph glyph-name="bar" unicode="|" horiz-adv-x="761" 
d="M272 -369v2171q0 39 27 64.5t66 25.5h32q39 0 65.5 -25.5t26.5 -64.5v-2171q0 -39 -26.5 -64.5t-65.5 -25.5h-32q-39 0 -66 25.5t-27 64.5z" />
    <glyph glyph-name="braceright" unicode="}" horiz-adv-x="968" 
d="M121 -369q0 41 26.5 67t65.5 26h10q25 0 42.5 18t17.5 41v536q0 82 13 137.5t36 102.5l8 19q4 10 8 22t4 27q0 23 -12 49l-8 18q-23 47 -36 101.5t-13 136.5v536q0 25 -17.5 42.5t-42.5 17.5h-10q-39 0 -65.5 26.5t-26.5 65.5t26.5 65.5t65.5 26.5h43q49 0 93 -19.5
t78 -53t53.5 -77.5t19.5 -94v-680q0 -35 22.5 -57t57.5 -22h67q33 0 57.5 -25t24.5 -57q0 -33 -24.5 -56.5t-57.5 -23.5h-67q-35 0 -57.5 -22.5t-22.5 -57.5v-684q0 -49 -19.5 -93t-53.5 -77t-78 -52.5t-93 -19.5h-43q-39 0 -65.5 25.5t-26.5 64.5z" />
    <glyph glyph-name="asciitilde" unicode="~" horiz-adv-x="1290" 
d="M289 543q0 27 14 47l45 65q35 51 87 77t110 26q78 0 141 -45l59 -41q16 -10 33 -10q29 0 49 26l27 37q25 35 66 35q25 0 47 -17q35 -23 34 -65q0 -27 -14 -47l-47 -66q-35 -49 -87 -74.5t-108 -25.5q-78 0 -143 45l-59 39q-14 12 -33 12q-29 0 -47 -29l-29 -36
q-23 -33 -65 -33q-27 0 -47 14q-33 23 -33 66z" />
    <glyph glyph-name="uni00A0" unicode="&#xa0;" horiz-adv-x="593" 
 />
    <glyph glyph-name="exclamdown" unicode="&#xa1;" horiz-adv-x="720" 
d="M217 956v17q0 57 39 96t96 39h17q57 0 96 -39t39 -96v-17q0 -57 -39 -96t-96 -39h-17q-57 0 -96 39t-39 96zM254 -244v801q0 39 25.5 65.5t64.5 26.5h33q39 0 65.5 -26.5t26.5 -65.5v-801q0 -39 -26.5 -65.5t-65.5 -26.5h-33q-39 0 -64.5 26.5t-25.5 65.5z" />
    <glyph glyph-name="cent" unicode="&#xa2;" horiz-adv-x="1085" 
d="M197 387v307q0 59 4 89t10 53q25 96 93.5 164.5t164.5 95.5v153q0 37 26.5 63.5t65.5 26.5q37 0 63.5 -26.5t26.5 -63.5v-149q35 -8 66 -20.5t55 -24.5l43 -25q18 -10 37 -22q29 -18 40 -38t11 -42q0 -25 -18 -56l-6 -10q-31 -47 -80 -47q-31 0 -54 14l-75 50
q-23 16 -50.5 25t-54.5 9q-53 0 -92 -31.5t-53 -78.5q-4 -10 -6 -28.5t-2 -63.5v-340q0 -45 2 -63.5t6 -28.5q14 -47 53 -79t92 -32q51 0 101 33l79 51q23 14 54 14q49 0 80 -47l6 -10q18 -31 18 -55q0 -23 -11 -42.5t-40 -37.5q-18 -12 -37 -23l-43 -24
q-25 -14 -55.5 -25.5t-65.5 -19.5v-134q0 -37 -26.5 -63.5t-63.5 -26.5q-39 0 -65.5 27t-26.5 63v138q-96 25 -164.5 94.5t-93.5 165.5q-6 23 -10 52.5t-4 88.5z" />
    <glyph glyph-name="sterling" unicode="&#xa3;" horiz-adv-x="1007" 
d="M90 727v10q0 39 26.5 65.5t65.5 26.5h47q16 0 28.5 12.5t12.5 28.5v273q0 66 24.5 121t66.5 96t98.5 64.5t120.5 23.5q66 0 118 -16.5t90 -36.5l49 -27q19 -10 37 -22q31 -20 42.5 -41t11.5 -43q0 -25 -19 -56l-6 -10q-31 -47 -80 -47q-31 0 -53 14l-84 56
q-55 35 -106 34q-39 0 -67 -28.5t-28 -67.5v-287q0 -16 12.5 -28.5t28.5 -12.5h109q39 0 65.5 -26.5t26.5 -65.5v-10q0 -39 -26.5 -65.5t-65.5 -26.5h-109q-16 0 -28.5 -12.5t-12.5 -28.5v-358q0 -16 12.5 -28.5t28.5 -12.5h92q51 0 101 32l80 52q23 14 53 14q49 0 80 -47
l6 -10q18 -31 18 -56q0 -23 -11 -42t-40 -38q-18 -12 -37 -22l-43 -25q-37 -20 -89 -36.5t-118 -16.5h-335q-41 0 -67 26.5t-26 65.5v10q0 29 16.5 52.5t43.5 33.5q20 10 20 37v369q0 16 -12 28.5t-29 12.5h-47q-39 0 -65.5 26.5t-26.5 65.5z" />
    <glyph glyph-name="yen" unicode="&#xa5;" horiz-adv-x="1024" 
d="M98 1335q0 41 28 68t69 27q29 0 53 -14.5t37 -49.5l176 -405q18 -43 26.5 -71t24.5 -28t24.5 28t26.5 71l176 405q12 35 37 49.5t53 14.5q41 0 69 -27t28 -68q0 -10 -4 -25.5t-9 -25.5l-213 -475q-8 -16 -8 -25q0 -16 12.5 -28.5t28.5 -12.5h78q39 0 67.5 -27.5
t28.5 -66.5t-28.5 -66.5t-67.5 -27.5h-152q-16 0 -27 -12.5t-11 -28.5v-51q0 -16 11 -28.5t27 -12.5h123q39 0 67 -27.5t28 -66.5t-28 -67t-67 -28h-123q-16 0 -27 -12t-11 -28v-101q0 -39 -27 -65.5t-66 -26.5h-32q-39 0 -66 26.5t-27 65.5v101q0 16 -12 28t-29 12h-120
q-39 0 -67 28t-28 67t28 66.5t67 27.5h120q16 0 28.5 12t12.5 29v51q0 16 -12 28.5t-29 12.5h-151q-39 0 -66.5 27.5t-27.5 66.5t27.5 66.5t66.5 27.5h78q16 0 28.5 12.5t12.5 28.5q0 6 -2 12.5t-6 14.5l-211 473q-4 10 -8.5 25.5t-4.5 25.5z" />
    <glyph glyph-name="section" unicode="&#xa7;" horiz-adv-x="1052" 
d="M135 557q0 76 25.5 139.5t72.5 114.5q14 14 15 31q0 8 -3 14t-7 12q-43 47 -68 110.5t-25 135.5q0 80 30 147.5t82 119t120.5 80t148.5 28.5q66 0 118 -15.5t91 -37.5q23 -14 45.5 -25.5t40.5 -24.5q23 -12 33 -33.5t10 -43.5q0 -29 -14 -49l-12 -21q-25 -43 -76 -43
q-29 0 -51 14l-84 52q-49 33 -101 32q-70 0 -118 -49t-48 -119v-26q0 -70 48.5 -119t117.5 -49h11q80 0 148.5 -29t120.5 -80t82 -118.5t30 -147.5q0 -74 -25 -137.5t-70 -112.5q-12 -8 -12 -28q0 -18 12 -31q45 -47 70 -110.5t25 -137.5q0 -80 -30 -147.5t-82 -118.5
t-121 -80t-148 -29h-17q-66 0 -117 15.5t-90 37.5q-25 14 -47 25.5t-41 24.5q-23 12 -33 33.5t-10 43.5q0 29 15 50l14 20q27 43 76 43q25 0 51 -16l84 -52q47 -31 98 -30h17q70 0 117.5 49t47.5 117v28q0 68 -48 117t-117 49h-21q-80 0 -148.5 30t-120.5 80t-82 118.5
t-30 148.5zM350 543q0 -70 48 -119t118 -49h21q70 0 117.5 49t47.5 119v28q0 68 -48 117t-117 49h-21q-70 0 -118 -49t-48 -117v-28z" />
    <glyph glyph-name="dieresis" unicode="&#xa8;" horiz-adv-x="1282" 
d="M272 1419v17q0 57 39 96t97 39h16q57 0 96 -39t39 -96v-17q0 -57 -39 -96t-96 -39h-16q-57 0 -96.5 39t-39.5 96zM723 1419v17q0 57 39 96t96 39h16q57 0 96.5 -39t39.5 -96v-17q0 -57 -39 -96t-97 -39h-16q-57 0 -96 39t-39 96z" />
    <glyph glyph-name="copyright" unicode="&#xa9;" horiz-adv-x="1802" 
d="M272 596v223q0 129 50.5 244t135.5 199t199.5 133t243.5 49t244 -49t200 -133t135 -199t50 -244v-223q0 -129 -50 -242.5t-135 -198.5t-200 -133.5t-244 -48.5t-243.5 48.5t-199.5 133.5t-135.5 198.5t-50.5 242.5zM408 596q0 -102 38.5 -193.5t105 -159t157 -106.5
t192.5 -39t192.5 39t157 106.5t105.5 159t39 193.5v223q0 102 -39 193.5t-105.5 159t-156.5 107.5t-193 40q-102 0 -192.5 -40t-157 -107.5t-105 -158.5t-38.5 -194v-223zM635 512v373q0 55 20.5 103t57.5 85t85 57.5t103 20.5q59 0 110.5 -24.5t98.5 -53.5l16 -10
q16 -12 22.5 -26.5t6.5 -28.5q0 -10 -4 -19.5t-8 -17.5q-16 -29 -53 -29q-10 0 -19 3l-18 7q-2 2 -11 6q-4 2 -6 5q-25 16 -60.5 36.5t-74.5 20.5q-55 0 -93 -40t-38 -95v-373q0 -53 38 -92t93 -39q39 0 75 20.5t60 36.5q2 2 6 4q8 4 11 7l18 7q8 3 19 3q37 0 53 -29
q4 -8 8 -17.5t4 -19.5q0 -14 -6 -28.5t-23 -26.5l-16 -10q-47 -29 -98 -53.5t-111 -24.5q-55 0 -103 20.5t-85 55t-57.5 83t-20.5 103.5z" />
    <glyph glyph-name="ordfeminine" unicode="&#xaa;" horiz-adv-x="868" 
d="M121 817v12q0 63 12 95q23 70 84.5 113.5t138.5 43.5h84q12 0 21.5 10.5t9.5 20.5v86q0 29 -20.5 51.5t-49.5 22.5q-37 0 -79 -27l-60 -37q-16 -10 -39 -10q-14 0 -31.5 8t-33.5 37q-10 16 -11 39q0 35 33 57l62 37q33 16 71.5 28.5t87.5 12.5q47 0 90.5 -17.5t75 -48
t50 -72.5t18.5 -91v-541q0 -27 -17.5 -44t-44.5 -17q-23 0 -35 10t-18 25q-4 12 -12 12q-6 0 -12 -6l-21 -15q-27 -20 -53.5 -33.5t-65.5 -13.5q-78 0 -139 45t-84 115q-12 31 -12 92zM283 823q0 -35 1 -46t5 -17q8 -23 25.5 -35t39.5 -12q49 0 92 39l15 12q8 8 9 14t1 17
v120q0 10 -9 20.5t-22 10.5h-86q-23 0 -40 -13t-25 -36q-4 -4 -5 -16.5t-1 -46.5v-11z" />
    <glyph glyph-name="guillemotleft" unicode="&#xab;" horiz-adv-x="1114" 
d="M121 535q0 29 14 53l189 315q29 49 82 49q39 0 66.5 -28.5t27.5 -63.5q0 -27 -15 -51l-135 -242q-8 -16 -8 -32t8 -33l135 -242q14 -25 15 -51q0 -35 -28 -63.5t-66 -28.5q-53 0 -82 49l-189 315q-14 25 -14 54zM567 535q0 29 15 53l188 315q29 49 82 49q39 0 66.5 -28.5
t27.5 -63.5q0 -27 -14 -51l-135 -242q-8 -16 -9 -32q0 -16 9 -33l135 -242q14 -25 14 -51q0 -35 -27.5 -63.5t-66.5 -28.5q-53 0 -82 49l-188 315q-15 25 -15 54z" />
    <glyph glyph-name="logicalnot" unicode="&#xac;" horiz-adv-x="1241" 
d="M213 602q0 37 26.5 64.5t65.5 27.5h631q39 0 65.5 -26.5t26.5 -63.5v-274q0 -39 -26.5 -64.5t-65.5 -25.5t-65.5 25.5t-26.5 64.5v127q0 53 -56 53h-483q-39 0 -65.5 26.5t-26.5 65.5z" />
    <glyph glyph-name="uni00AD" unicode="&#xad;" horiz-adv-x="1093" 
d="M240 602q0 39 27.5 65.5t66.5 26.5h426q39 0 66.5 -26.5t27.5 -65.5t-27.5 -65.5t-66.5 -26.5h-426q-39 0 -66.5 26.5t-27.5 65.5z" />
    <glyph glyph-name="registered" unicode="&#xae;" horiz-adv-x="1617" 
d="M272 868v371q0 90 34 168t93.5 136.5t138 91t167.5 32.5h208q90 0 168 -32.5t137.5 -91t93.5 -136.5t34 -168v-371q0 -90 -34 -168.5t-93.5 -137t-137 -91.5t-168.5 -33h-208q-88 0 -167 33t-138.5 91.5t-93.5 137t-34 168.5zM408 862q0 -61 23.5 -115.5t63.5 -95.5
t94 -64.5t116 -23.5h208q61 0 115.5 23.5t94.5 64.5t63.5 95.5t23.5 115.5v381q0 61 -23.5 116.5t-63.5 96.5t-94 64.5t-116 23.5h-208q-61 0 -115.5 -23.5t-94.5 -64.5t-63.5 -96t-23.5 -117v-381zM565 733v645q0 27 18.5 46.5t45.5 19.5h200q55 0 104.5 -20.5t86.5 -55.5
t58.5 -82t21.5 -102q0 -35 -11.5 -72t-33 -70.5t-51 -60.5t-64.5 -41q-8 -4 -8 -16q0 -10 4 -13l98 -153q8 -10 10.5 -19.5t2.5 -17.5q0 -27 -21.5 -41t-38.5 -14h-8q-20 0 -32.5 10t-22.5 24l-127 203q-14 20 -27 21h-59q-10 0 -11 -11v-180q0 -29 -19 -48t-48 -19
t-48.5 19t-19.5 48zM700 1057q0 -12 13 -13h123q53 0 91 40t38 100q0 53 -38 94t-98 41h-118q-10 0 -11 -10v-252z" />
    <glyph glyph-name="degree" unicode="&#xb0;" horiz-adv-x="1028" 
d="M272 1180q0 49 19.5 93t51.5 75.5t76 51t93 19.5t94 -19.5t78 -51t52.5 -75.5t19.5 -93t-19.5 -94.5t-52.5 -78t-78 -52t-94 -19.5t-93 19.5t-76 52t-51.5 78t-19.5 94.5zM354 1180q0 -68 46 -116t112 -48q68 0 116 48t48 116q0 66 -48 111.5t-116 45.5q-66 0 -112 -45.5
t-46 -111.5z" />
    <glyph glyph-name="plusminus" unicode="&#xb1;" horiz-adv-x="1257" 
d="M242 -203q0 39 27.5 65.5t66.5 26.5h586q39 0 66.5 -26.5t27.5 -65.5t-27.5 -65.5t-66.5 -26.5h-586q-39 0 -66.5 26.5t-27.5 65.5zM242 594v12q0 39 26.5 65.5t65.5 26.5h145q16 0 28.5 11.5t12.5 27.5v209q0 39 26.5 65.5t65.5 26.5h33q39 0 65.5 -26.5t26.5 -65.5
v-209q0 -16 11.5 -27.5t27.5 -11.5h148q39 0 65.5 -26.5t26.5 -65.5v-12q0 -39 -26.5 -64.5t-65.5 -25.5h-148q-16 0 -27.5 -12.5t-11.5 -28.5v-203q0 -39 -26.5 -65.5t-65.5 -26.5h-33q-39 0 -65.5 26.5t-26.5 65.5v203q0 16 -12 28.5t-29 12.5h-145q-39 0 -65.5 25.5
t-26.5 64.5z" />
    <glyph glyph-name="acute" unicode="&#xb4;" horiz-adv-x="987" 
d="M272 1307q0 8 6.5 31.5t40.5 45.5l218 156q27 16 55 16q59 0 102 -63q12 -16 16.5 -32.5t4.5 -30.5q0 -29 -13.5 -55.5t-46.5 -43.5l-241 -108l-24 -10q-13 -5 -30 -5q-29 0 -47 16.5t-26 32.5q-15 27 -15 50z" />
    <glyph glyph-name="uni00B5" unicode="&#xb5;" horiz-adv-x="1243" 
d="M233 -84q0 51 20.5 98t61.5 82q-45 55 -67 137q-6 23 -10.5 52.5t-4.5 85.5v618q0 39 26 65.5t65 26.5h32q39 0 66 -26.5t27 -65.5v-635q0 -41 2 -59.5t6 -28.5q14 -41 49 -69.5t80 -28.5q35 0 70.5 13.5t66.5 39.5l18 17q10 10 12.5 17t2.5 9v725q0 39 26.5 65.5
t65.5 26.5h31q39 0 65.5 -26.5t26.5 -65.5v-907q0 -35 -23.5 -58.5t-58.5 -23.5q-29 0 -45.5 13.5t-24.5 31.5q-6 16 -16 16q-6 0 -17 -6l-34 -24q-29 -20 -77 -39t-100 -19q-23 0 -43 3.5t-40 7.5q-8 2 -16.5 5t-18.5 3q-18 0 -28.5 -13.5t-10.5 -31.5v-142
q0 -39 -26.5 -65.5t-65.5 -26.5t-66 27t-27 65v111z" />
    <glyph glyph-name="paragraph" unicode="&#xb6;" horiz-adv-x="1185" 
d="M182 942q0 74 5.5 113t15.5 67q20 66 59 119t91.5 93t117 61.5t135.5 21.5h422q39 0 65.5 -26.5t26.5 -65.5v-10q0 -41 -26.5 -66.5t-65.5 -25.5h-84q-16 0 -28.5 -12.5t-12.5 -28.5v-903q0 -66 -24.5 -121.5t-66.5 -96.5t-98.5 -64.5t-119.5 -23.5q-66 0 -118 16.5
t-91 37.5l-48 26q-19 10 -38 23q-31 20 -42 40.5t-11 43.5q0 25 18 55l6 10q31 47 80 47q31 0 53 -14l84 -55q55 -35 107 -35q39 0 66.5 28.5t27.5 67.5v162q0 16 -11 28.5t-28 12.5h-43q-72 0 -136 21.5t-116.5 61.5t-91.5 94t-59 118q-10 29 -15.5 67.5t-5.5 112.5z" />
    <glyph glyph-name="periodcentered" unicode="&#xb7;" horiz-adv-x="831" 
d="M272 774v14q0 57 39 96.5t97 39.5h16q57 0 96 -39t39 -97v-14q0 -57 -39 -96t-96 -39h-16q-57 0 -96.5 39t-39.5 96z" />
    <glyph glyph-name="cedilla" unicode="&#xb8;" horiz-adv-x="808" 
d="M272 -301q0 25 19.5 44t44.5 19h18q29 0 29 29v21q0 14 -12 22l-11 6q-10 6 -31.5 25.5t-21.5 68.5v66h154v-37q0 -12 5 -19t13 -14q57 -45 58 -123v-26q0 -33 -13.5 -62.5t-36 -51t-52 -35t-64.5 -13.5h-35q-25 0 -44.5 19.5t-19.5 44.5v16z" />
    <glyph glyph-name="ordmasculine" unicode="&#xba;" horiz-adv-x="929" 
d="M188 877v229q0 45 4.5 67.5t8.5 38.5q23 90 94.5 147.5t169.5 57.5t171 -57t95 -148q4 -16 7 -38.5t3 -67.5v-229q0 -45 -3 -68t-7 -39q-23 -90 -95.5 -147.5t-170.5 -57.5t-170 57.5t-94 147.5q-4 16 -8.5 39t-4.5 68zM350 864q0 -35 2 -48t4 -21q10 -35 40 -58.5
t69 -23.5q41 0 70.5 23.5t39.5 58.5q2 8 4.5 21t2.5 48v254q0 35 -2 48.5t-5 21.5q-10 35 -39.5 59.5t-70.5 24.5q-39 0 -68.5 -24.5t-40.5 -59.5q-2 -8 -4 -21.5t-2 -48.5v-254z" />
    <glyph glyph-name="guillemotright" unicode="&#xbb;" horiz-adv-x="1114" 
d="M168 209q0 27 14 51l135 242q8 16 9 33q0 16 -9 32l-135 242q-14 25 -14 51q0 35 27.5 63.5t66.5 28.5q53 0 82 -49l188 -315q14 -25 15 -53q0 -29 -15 -54l-188 -315q-29 -49 -82 -49q-39 0 -66.5 28.5t-27.5 63.5zM614 209q0 27 15 51l135 242q8 16 8 33q0 16 -8 32
l-135 242q-14 25 -15 51q0 35 28 63.5t67 28.5q53 0 82 -49l188 -315q14 -25 14 -53q0 -29 -14 -54l-188 -315q-29 -49 -82 -49q-39 0 -67 28.5t-28 63.5z" />
    <glyph glyph-name="questiondown" unicode="&#xbf;" horiz-adv-x="1189" 
d="M272 -78q0 74 29 146.5t82 132.5l160 182q37 41 37 92v109q0 39 26.5 65.5t65.5 26.5h33q39 0 65.5 -26.5t26.5 -65.5v-92q0 -68 -23.5 -127.5t-66.5 -106.5l-162 -184q-31 -35 -44.5 -75t-13.5 -79v-14q0 -63 44 -108.5t108 -45.5h16q27 0 54.5 9.5t50.5 25.5l76 49
q23 14 53 14q49 0 80 -47l6 -10q18 -31 18 -55q0 -23 -11 -42.5t-40 -37.5q-18 -12 -37 -23l-43 -24q-37 -20 -89 -36.5t-118 -16.5h-16q-76 0 -142.5 28.5t-116.5 77.5t-79 115.5t-29 142.5zM547 956v17q0 57 40 96t95 39h16q57 0 96.5 -39t39.5 -96v-17q0 -57 -39 -96
t-97 -39h-16q-55 0 -95 39t-40 96z" />
    <glyph glyph-name="divide" unicode="&#xf7;" horiz-adv-x="1257" 
d="M242 600q0 39 27.5 65.5t66.5 26.5h586q39 0 66.5 -26.5t27.5 -65.5t-27.5 -65.5t-66.5 -26.5h-586q-39 0 -66.5 26.5t-27.5 65.5zM494 223v17q0 57 38.5 96t96.5 39h14q57 0 96 -39t39 -96v-17q0 -57 -39 -96t-96 -39h-14q-57 0 -96 39t-39 96zM494 961v16q0 57 38.5 96
t96.5 39h14q57 0 96 -39t39 -96v-16q0 -57 -39 -96.5t-96 -39.5h-14q-57 0 -96 39.5t-39 96.5z" />
    <glyph glyph-name="florin" unicode="&#x192;" horiz-adv-x="1089" 
d="M203 -225q0 39 26.5 64.5t65.5 25.5h18q41 0 68 27.5t27 68.5v647q0 16 -12.5 28.5t-28.5 12.5h-72q-39 0 -65.5 26.5t-26.5 65.5v11q0 39 26.5 65.5t65.5 26.5h72q16 0 28.5 12t12.5 29v372q0 63 24.5 119t65.5 95.5t98 63.5t121 24h18q39 0 65.5 -27t26.5 -66v-16
q0 -39 -26.5 -64.5t-65.5 -25.5h-18q-41 0 -67.5 -27.5t-26.5 -68.5v-379q0 -16 12 -28.5t29 -12.5h131q39 0 65.5 -26.5t26.5 -65.5v-11q0 -39 -26.5 -65.5t-65.5 -26.5h-131q-16 0 -28.5 -12t-12.5 -29v-641q0 -63 -25 -118.5t-65.5 -95.5t-97 -63.5t-122.5 -23.5h-18
q-39 0 -65.5 26.5t-26.5 65.5v17z" />
    <glyph glyph-name="circumflex" unicode="&#x2c6;" horiz-adv-x="1128" 
d="M272 1321q0 33 27 65l193 195q29 29 73 29q43 0 72 -29l192 -195q27 -33 27 -65q0 -41 -27 -68t-67 -26q-20 0 -34.5 7t-27.5 17l-98 80q-14 14 -37 15q-23 0 -39 -15l-96 -80q-29 -25 -63 -24q-41 0 -68 26q-27 27 -27 68z" />
    <glyph glyph-name="ring" unicode="&#x2da;" horiz-adv-x="1030" 
d="M272 1468q0 49 19.5 93.5t52.5 76t77 51t93 19.5t93 -19.5t78 -51t53.5 -75.5t19.5 -94q0 -49 -19.5 -94t-53.5 -77.5t-78 -52t-93 -19.5t-93 19.5t-77 52t-52.5 77.5t-19.5 94zM395 1468q0 -51 35 -86.5t84 -35.5q51 0 86 35.5t35 86.5q0 47 -35 83t-86 36t-85 -34
t-34 -85z" />
    <glyph glyph-name="tilde" unicode="&#x2dc;" horiz-adv-x="1257" 
d="M272 1358q0 27 15 47l45 65q35 51 87 77t109 26q78 0 142 -45l59 -41q16 -10 33 -10q29 0 49 26l27 37q25 35 65 35q25 0 47 -16q35 -23 35 -66q0 -27 -14 -47l-47 -66q-35 -49 -87.5 -74.5t-107.5 -25.5q-78 0 -143 45l-60 39q-14 12 -32 12q-29 0 -48 -28l-28 -37
q-23 -33 -66 -33q-27 0 -47 14q-33 23 -33 66z" />
    <glyph glyph-name="Omega" unicode="&#x3a9;" horiz-adv-x="1720" 
d="M272 813v21q0 82 6.5 129t16.5 81q27 90 78 163t121.5 126t155.5 82t179 29h62q94 0 179 -29t155.5 -82t122 -125.5t77.5 -163.5q10 -35 16.5 -82t6.5 -128v-21q0 -82 -6 -129t-17 -82q-31 -104 -95 -186t-152 -135q-8 -4 -14.5 -13.5t-6.5 -19.5v-6q0 -25 18.5 -41.5
t41.5 -16.5h22q39 0 65.5 -26.5t26.5 -65.5t-26.5 -65.5t-65.5 -26.5h-205q-39 0 -65.5 26.5t-26.5 65.5v232q0 33 18.5 58.5t47.5 35.5q78 29 134 90t77 145q6 29 9 62t3 108q0 76 -3 109t-9 61q-14 55 -45 102.5t-74 81t-96.5 53t-112.5 19.5h-62q-57 0 -111 -19.5
t-97 -53t-74 -80.5t-45 -103q-6 -29 -9.5 -61.5t-3.5 -108.5t3.5 -108.5t9.5 -61.5q20 -84 76.5 -145.5t134.5 -89.5q29 -10 47 -36t18 -58v-232q0 -39 -26.5 -65.5t-65.5 -26.5h-205q-39 0 -65.5 26.5t-26.5 65.5t26.5 65.5t65.5 26.5h23q23 0 41 16.5t18 41.5v6
q0 10 -6 19t-14 14q-88 53 -152.5 135t-95.5 186q-10 35 -16.5 82t-6.5 129z" />
    <glyph glyph-name="pi" unicode="&#x3c0;" horiz-adv-x="1677" 
d="M240 979v10q0 39 26.5 65.5t65.5 26.5h1044q39 0 65.5 -26.5t26.5 -65.5v-10q0 -39 -26.5 -65.5t-65.5 -26.5h-110q-16 0 -28.5 -12.5t-12.5 -28.5v-567q0 -39 28.5 -69t67.5 -30h25q39 0 64.5 -25.5t25.5 -64.5v-12q0 -39 -26 -65.5t-64 -26.5h-25q-63 0 -120.5 23.5
t-99.5 64.5t-66.5 97t-24.5 122v553q0 16 -12.5 28.5t-28.5 12.5h-230q-16 0 -28.5 -12.5t-12.5 -28.5v-754q0 -39 -25.5 -65.5t-64.5 -26.5h-33q-39 0 -65.5 26.5t-26.5 65.5v754q0 16 -12 28.5t-29 12.5h-110q-39 0 -65.5 26.5t-26.5 65.5z" />
    <glyph glyph-name="afii10017" unicode="&#x410;" horiz-adv-x="1187" 
d="M135 74q0 10 1 18t3 19l240 1185q12 59 53 103.5t107 44.5h110q66 0 107 -44t53 -104l240 -1185q2 -10 3 -18.5t1 -18.5q0 -47 -30 -66.5t-67 -19.5h-6q-39 0 -63.5 22.5t-32.5 63.5l-33 166q-4 25 -20.5 43t-42.5 18h-328q-27 0 -43 -18.5t-20 -42.5l-33 -166
q-8 -41 -33 -63.5t-63 -22.5h-7q-37 0 -66.5 19.5t-29.5 66.5zM424 516q0 -12 8 -21.5t29 -9.5h266q20 0 28.5 9.5t8.5 21.5q0 10 -4 31l-139 694q-4 27 -27 27t-27 -27l-139 -694q-4 -21 -4 -31z" />
    <glyph glyph-name="afii10018" unicode="&#x411;" horiz-adv-x="1292" 
d="M272 92v1233q0 39 27 65.5t66 26.5h573q39 0 64.5 -26.5t25.5 -65.5v-10q0 -45 -26.5 -68.5t-63.5 -23.5h-389q-25 0 -42.5 -16.5t-17.5 -41.5v-258q0 -25 17.5 -42t42.5 -17h106q129 0 217.5 -40t142.5 -100.5t77.5 -130t23.5 -126.5v-39q0 -86 -34.5 -162t-92 -131.5
t-132.5 -87t-155 -31.5h-337q-39 0 -66 25.5t-27 66.5zM489 252q0 -23 18.5 -40t41.5 -17h145q41 0 78 15t65.5 42t45 64.5t16.5 82.5v50q0 80 -56.5 142t-168.5 62h-125q-25 0 -42.5 -16t-17.5 -41v-344z" />
    <glyph glyph-name="afii10019" unicode="&#x412;" horiz-adv-x="1312" 
d="M272 92v1233q0 39 27 65.5t66 26.5h319q84 0 156.5 -30.5t126 -85t85 -126t31.5 -155.5q0 -141 -84 -244q-16 -20 -16 -41q0 -23 18 -41q55 -53 85 -125.5t30 -156.5q0 -86 -32.5 -161t-89 -130t-131.5 -88t-161 -33h-337q-39 0 -66 26.5t-27 65.5zM489 252
q0 -25 17.5 -41t42.5 -16h145q86 0 145.5 59t59.5 145v21q0 86 -59.5 145.5t-145.5 59.5h-145q-25 0 -42.5 -16.5t-17.5 -41.5v-315zM489 879q0 -25 17.5 -42.5t42.5 -17.5h127q39 0 73.5 15.5t60.5 41t41 61.5t15 75v18q0 39 -15 74t-41 61.5t-60.5 42t-73.5 15.5h-127
q-25 0 -42.5 -16.5t-17.5 -41.5v-286z" />
    <glyph glyph-name="afii10020" unicode="&#x413;" horiz-adv-x="1093" 
d="M272 92v1233q0 39 27 65.5t66 26.5h585q39 0 64.5 -26.5t25.5 -65.5v-10q0 -41 -25.5 -66.5t-64.5 -25.5h-401q-25 0 -42.5 -16.5t-17.5 -41.5v-1073q0 -39 -26.5 -65.5t-65.5 -26.5h-32q-39 0 -66 26.5t-27 65.5z" />
    <glyph glyph-name="afii10021" unicode="&#x414;" horiz-adv-x="1357" 
d="M102 127q0 23 15.5 40t44.5 17h18q35 0 59.5 54.5t59.5 177.5q8 33 20.5 99.5t23.5 171t18.5 249.5t7.5 334v55q0 41 22.5 66.5t69.5 25.5h532q47 0 68.5 -25.5t21.5 -66.5v-1083q0 -23 15.5 -40.5t44.5 -17.5h45q20 0 39 -14q20 -18 20 -43v-297q0 -41 -24.5 -66.5
t-65.5 -25.5h-24q-41 0 -67 25.5t-26 66.5v113q0 23 -16 40t-43 17h-612q-27 0 -43.5 -15.5t-16.5 -41.5v-113q0 -41 -24.5 -66.5t-65.5 -25.5h-24q-41 0 -67 25.5t-26 66.5v297zM449 215q0 -27 17 -29t26 -2h317q27 0 43 15.5t16 44.5v932q0 23 -14 40t-45 17h-178
q-25 0 -42.5 -16.5t-17.5 -40.5v-134q0 -96 -6 -194t-17 -188.5t-25.5 -166t-28.5 -126.5l-27 -88q-10 -31 -14 -45.5t-4 -18.5z" />
    <glyph glyph-name="afii10022" unicode="&#x415;" horiz-adv-x="1175" 
d="M272 92v1233q0 39 27 65.5t66 26.5h585q39 0 64.5 -26.5t25.5 -65.5v-10q0 -41 -25.5 -66.5t-64.5 -25.5h-401q-25 0 -42.5 -16.5t-17.5 -41.5v-291q0 -25 17.5 -42t42.5 -17h229q39 0 65.5 -26.5t26.5 -65.5t-26.5 -65.5t-65.5 -26.5h-229q-25 0 -42.5 -16.5
t-17.5 -41.5v-321q0 -25 17.5 -41t42.5 -16h401q39 0 64.5 -27t25.5 -66v-10q0 -39 -25.5 -65.5t-64.5 -26.5h-585q-39 0 -66 26.5t-27 65.5z" />
    <glyph glyph-name="afii10024" unicode="&#x416;" horiz-adv-x="1632" 
d="M172 84q0 14 4 29.5t8 23.5l240 547q10 20 10 35q0 10 -3 19.5t-7 15.5l-225 530q-2 4 -7.5 17.5t-5.5 31.5q0 33 22.5 65t72.5 32q31 0 55 -16.5t37 -47.5l215 -510q18 -45 57 -45h12q18 0 35 10t17 60v444q0 39 26.5 65.5t65.5 26.5h30q39 0 66 -26.5t27 -65.5v-444
q0 -49 16 -59.5t35 -10.5h12q39 0 57 45l216 510q25 63 94 64q41 0 66.5 -28t25.5 -67q0 -18 -4 -29l-8 -22l-226 -530q-4 -6 -7 -15.5t-3 -19.5q0 -14 10 -35l240 -547q4 -8 8 -23.5t4 -29.5q0 -41 -26.5 -69.5t-67.5 -28.5q-63 0 -92 65l-238 541q-10 23 -25.5 33
t-29.5 10h-6q-27 0 -39 -21.5t-12 -48.5v-473q0 -39 -27 -65.5t-66 -26.5h-30q-39 0 -65.5 26.5t-26.5 65.5v473q0 27 -12.5 48.5t-39.5 21.5h-8q-12 0 -27.5 -10.5t-25.5 -32.5l-238 -541q-29 -66 -92 -65q-41 0 -67.5 28.5t-26.5 69.5z" />
    <glyph glyph-name="afii10025" unicode="&#x417;" horiz-adv-x="1155" 
d="M164 168q0 10 4 23.5t14 31.5l6 10q10 14 30 31t50 17q25 0 37 -6.5t29 -16.5l78 -51q23 -16 52.5 -27.5t70.5 -11.5q113 0 159.5 61.5t46.5 173.5v39q0 92 -53 137.5t-125 45.5h-102q-35 0 -59.5 26.5t-24.5 65.5v10q0 25 21.5 58.5t74.5 33.5h82q27 0 60.5 8.5
t60.5 36.5q16 18 28.5 51t12.5 86v60q0 90 -53.5 139t-133.5 49q-20 0 -56 -7t-87 -42q-49 -35 -70.5 -48t-48.5 -13q-29 0 -49 13t-31 32l-6 10q-18 33 -18 55q0 41 26.5 62.5t63.5 44.5q27 16 53.5 29.5t67.5 29.5t75.5 22.5t81.5 6.5q86 0 160 -31t128 -83t84 -123.5
t30 -153.5v-23q0 -53 -12.5 -112.5t-55.5 -118.5l-30 -41q-10 -16 -11 -29q0 -14 6 -20l13 -13l24 -24q31 -31 48.5 -67t26.5 -71.5t12 -67.5t3 -54v-29q0 -184 -106.5 -297t-316.5 -113q-74 0 -137.5 21.5t-92.5 38.5l-61 35q-33 18 -56.5 41.5t-23.5 58.5z" />
    <glyph glyph-name="afii10026" unicode="&#x418;" horiz-adv-x="1359" 
d="M272 92v1231q0 41 29 67.5t70 26.5h22q39 0 66.5 -26.5t27.5 -65.5v-610l-4 -121q0 -8 2 -19.5t17 -11.5q12 0 17 17.5t16 37.5l321 721q18 39 46 58.5t73 19.5h18q41 0 67.5 -25.5t26.5 -66.5v-1233q0 -41 -25.5 -66.5t-66.5 -25.5h-30q-49 0 -71 28.5t-22 63.5v610
l5 121q0 8 -2.5 19.5t-16.5 11.5t-19 -17.5t-14 -37.5l-30 -78l-291 -643q-20 -43 -47 -60.5t-74 -17.5h-18q-43 0 -68 26.5t-25 65.5z" />
    <glyph glyph-name="afii10027" unicode="&#x419;" horiz-adv-x="1359" 
d="M272 92v1231q0 41 29 67.5t70 26.5h22q39 0 66.5 -26.5t27.5 -65.5v-610l-4 -121q0 -8 2 -19.5t17 -11.5q12 0 17 17.5t16 37.5l321 721q18 39 46 58.5t73 19.5h18q41 0 67.5 -25.5t26.5 -66.5v-1233q0 -41 -25.5 -66.5t-66.5 -25.5h-30q-49 0 -71 28.5t-22 63.5v610
l5 121q0 8 -2.5 19.5t-16.5 11.5t-19 -17.5t-14 -37.5l-30 -78l-291 -643q-20 -43 -47 -60.5t-74 -17.5h-18q-43 0 -68 26.5t-25 65.5zM395 1663q0 23 8.5 37t18.5 22q12 10 25.5 18.5t35.5 8.5q12 0 28.5 -5t35.5 -32l16 -24q20 -31 43 -49.5t74 -18.5t73.5 18.5t43.5 49.5
l16 24q18 27 34.5 32t29.5 5q23 0 36 -8t25 -19q10 -8 18.5 -22t8.5 -37q0 -14 -5.5 -33.5t-19.5 -40.5l-22 -30q-43 -59 -102.5 -79t-135.5 -20t-135.5 19.5t-102.5 79.5l-22 30q-14 20 -19.5 40t-5.5 34z" />
    <glyph glyph-name="afii10028" unicode="&#x41a;" horiz-adv-x="1245" 
d="M272 92v1233q0 39 27 65.5t66 26.5h30q39 0 65.5 -26.5t26.5 -65.5v-444q0 -29 16.5 -44.5t43.5 -15.5h12q18 0 34.5 9.5t22.5 25.5l234 510q27 63 92 64q39 0 66.5 -28t27.5 -69q0 -14 -4 -26.5t-8 -22.5l-238 -530q-10 -20 -10 -35q0 -14 10 -35l250 -547
q12 -25 13 -53q0 -43 -28 -70.5t-67 -27.5q-61 0 -92 65l-254 541q-14 31 -51 31h-10q-25 0 -42.5 -16.5t-17.5 -41.5v-473q0 -39 -26.5 -65.5t-65.5 -26.5h-30q-39 0 -66 26.5t-27 65.5z" />
    <glyph glyph-name="afii10029" unicode="&#x41b;" horiz-adv-x="1355" 
d="M92 92q0 37 20.5 55.5t34.5 26.5l58 35q45 29 72.5 71t42 94t20.5 109.5t10 116.5q2 33 4 98.5t4 141t3 148.5t1 120v217q0 39 27 65.5t66 26.5h538q37 0 63.5 -26.5t26.5 -65.5v-1233q0 -39 -26.5 -65.5t-63.5 -26.5h-32q-39 0 -66 26.5t-27 65.5v1084q0 23 -13 40
t-42 17h-190q-29 0 -43.5 -18.5t-14.5 -38.5v-138q0 -166 -5 -289.5t-14 -214t-22.5 -153t-27.5 -107.5q-39 -111 -98.5 -173t-123.5 -97l-26 -14q-27 -16 -55 -17q-33 0 -51.5 18.5t-26.5 33.5l-13 22q-10 25 -10 45z" />
    <glyph glyph-name="afii10030" unicode="&#x41c;" horiz-adv-x="1552" 
d="M272 92v1233q0 39 27 65.5t66 26.5h28q37 0 68 -17.5t53 -60.5l203 -403q23 -41 33 -73t26 -32t26.5 32t33.5 73l202 403q23 43 53.5 60.5t67.5 17.5h29q39 0 65.5 -26.5t26.5 -65.5v-1233q0 -39 -26.5 -65.5t-65.5 -26.5h-33q-39 0 -64.5 26.5t-25.5 65.5v703
q0 59 2 82.5t2 37.5q0 31 -18 31q-16 0 -28.5 -36t-45.5 -101l-66 -131q-16 -33 -43.5 -55.5t-64.5 -22.5h-53q-37 0 -65 22.5t-44 55.5l-66 131q-33 66 -45 101.5t-28 35.5q-18 0 -19 -31q0 -14 2 -37.5t2 -82.5v-703q0 -39 -25.5 -65.5t-64.5 -26.5h-32q-39 0 -66 26.5
t-27 65.5z" />
    <glyph glyph-name="afii10031" unicode="&#x41d;" horiz-adv-x="1331" 
d="M272 92v1233q0 39 27 65.5t66 26.5h32q39 0 64.5 -26.5t25.5 -65.5v-451q0 -25 18.5 -42t41.5 -17h237q25 0 42.5 17.5t17.5 41.5v451q0 39 26.5 65.5t65.5 26.5h31q39 0 65.5 -26.5t26.5 -65.5v-1233q0 -39 -26.5 -65.5t-65.5 -26.5h-31q-39 0 -65.5 26.5t-26.5 65.5
v481q0 25 -17.5 41.5t-42.5 16.5h-237q-23 0 -41.5 -16.5t-18.5 -41.5v-481q0 -39 -25.5 -65.5t-64.5 -26.5h-32q-39 0 -66 26.5t-27 65.5z" />
    <glyph glyph-name="afii10032" unicode="&#x41e;" horiz-adv-x="1241" 
d="M197 492v434q0 53 1 89t4 60.5t7 42t8 31.5q20 66 59 119t91.5 93t117 61.5t136.5 21.5t136 -21.5t116.5 -61.5t91.5 -93.5t59 -118.5q4 -14 8 -31.5t7 -42t4 -60.5t1 -89v-434q0 -53 -1 -89t-4 -61t-7 -42t-8 -32q-20 -63 -59 -117.5t-91.5 -94.5t-117 -61.5
t-135.5 -21.5q-72 0 -136.5 21.5t-117 61.5t-91 94.5t-59.5 117.5q-4 14 -8 31.5t-7 42.5t-4 61t-1 89zM414 479q0 -47 1 -78.5t4 -52t6 -32t7 -21.5q23 -57 73 -92t116 -35t115.5 35t72.5 92q4 10 7 21.5t6 32t4 52t1 78.5v459q0 47 -1 79t-4 52.5t-6 32.5t-7 20
q-23 57 -73 92t-115 35q-66 0 -116 -34.5t-73 -92.5q-4 -8 -7 -20t-6 -32.5t-4 -52.5t-1 -79v-459z" />
    <glyph glyph-name="afii10033" unicode="&#x41f;" horiz-adv-x="1331" 
d="M272 92v1233q0 41 26 66.5t67 25.5h604q41 0 65.5 -25.5t24.5 -66.5v-1233q0 -41 -26.5 -66.5t-63.5 -25.5h-33q-39 0 -65.5 25.5t-26.5 66.5v1084q0 23 -16.5 40t-43.5 17h-237q-27 0 -43.5 -17.5t-16.5 -39.5v-1084q0 -39 -26.5 -65.5t-63.5 -26.5h-32q-41 0 -67 25.5
t-26 66.5z" />
    <glyph glyph-name="afii10034" unicode="&#x420;" horiz-adv-x="1251" 
d="M272 92v1233q0 39 27 65.5t66 26.5h327q72 0 136.5 -21.5t116.5 -61.5t91 -93t60 -119q10 -29 15 -67.5t5 -112.5t-5 -112.5t-15 -67.5q-20 -63 -59.5 -117.5t-91.5 -94.5t-116.5 -61.5t-136.5 -21.5h-145q-25 0 -42.5 -18.5t-17.5 -42.5v-314q0 -39 -26.5 -65.5
t-65.5 -26.5h-30q-39 0 -66 26.5t-27 65.5zM487 721q0 -23 17.5 -41t42.5 -18h145q66 0 116 34.5t73 91.5q8 18 13 48t5 94v24q0 63 -5 93t-13 49q-23 57 -73 92t-116 35h-145q-25 0 -42.5 -16.5t-17.5 -41.5v-444z" />
    <glyph glyph-name="afii10035" unicode="&#x421;" horiz-adv-x="1126" 
d="M197 492v434q0 53 1 89t4 60.5t7 42t8 31.5q20 66 59 119t91.5 93t117 61.5t136.5 21.5t127 -17.5t102 -42.5q33 -16 49 -26l39 -25q31 -20 42 -40.5t11 -43.5q0 -25 -18 -55l-6 -10q-31 -47 -80 -47q-31 0 -53 14l-91 59q-29 18 -57.5 28.5t-64.5 10.5q-66 0 -116 -34.5
t-73 -92.5q-4 -8 -7 -20t-6 -32.5t-4 -52.5t-1 -79v-459q0 -47 1 -78.5t4 -52t6 -32t7 -21.5q23 -57 73 -92t116 -35q37 0 65.5 10t56.5 29l91 59q23 14 53 15q49 0 80 -48l6 -10q18 -31 18 -55q0 -23 -11 -43.5t-42 -40.5l-39 -25q-16 -10 -49 -26q-47 -25 -102.5 -42.5
t-126.5 -17.5q-72 0 -136.5 21.5t-117 61.5t-91 94.5t-59.5 117.5q-4 14 -8 31.5t-7 42.5t-4 61t-1 89z" />
    <glyph glyph-name="afii10036" unicode="&#x422;" 
d="M135 1315v10q0 39 26.5 65.5t65.5 26.5h611q39 0 65.5 -26.5t26.5 -65.5v-10q0 -41 -26.5 -66.5t-65.5 -25.5h-156q-16 0 -28.5 -12.5t-12.5 -28.5v-1090q0 -39 -26.5 -65.5t-65.5 -26.5h-33q-39 0 -65.5 26.5t-26.5 65.5v1090q0 16 -12.5 28.5t-28.5 12.5h-156
q-39 0 -65.5 25.5t-26.5 66.5z" />
    <glyph glyph-name="afii10037" unicode="&#x423;" horiz-adv-x="1103" 
d="M137 1335q0 47 26.5 71t63.5 24h6q8 0 21.5 -1.5t28 -7.5t29 -20.5t24.5 -40.5l203 -533l34 -94q10 -27 16.5 -38t16.5 -11h4q10 0 16.5 18.5t12.5 40.5l10 39l162 572q8 29 22.5 44t30 22t28.5 8.5t19 1.5h7q41 0 64.5 -25t23.5 -64q0 -10 -2.5 -19t-6.5 -24l-276 -901
q-25 -84 -50.5 -148.5t-60.5 -112.5t-84 -82t-123 -56l-38 -12l-29 -9q-14 -4 -31 -4q-20 0 -37.5 12.5t-34.5 45.5l-4 8q-4 8 -8 23.5t-4 37.5q0 39 25.5 54.5t38.5 19.5l79 23q27 8 51.5 20t44 32.5t32 51.5t12.5 74q0 27 -11 53l-344 866q-4 10 -6 20.5t-2 20.5z" />
    <glyph glyph-name="afii10038" unicode="&#x424;" horiz-adv-x="1456" 
d="M156 702v39q0 207 99 329t296 122h10q45 0 52.5 16.5t7.5 44.5v105q0 39 26.5 65.5t65.5 26.5h32q41 0 66 -26.5t25 -65.5v-105q0 -29 8 -45t49 -16h18q94 0 167 -32t122 -88t74.5 -134t25.5 -168v-96q0 -76 -22.5 -152t-69.5 -136t-120.5 -98t-176.5 -38h-24
q-35 0 -43 -16.5t-8 -45.5v-120q0 -37 -26 -65t-67 -28h-30q-35 0 -63.5 26t-28.5 67v120q0 29 -8.5 45.5t-43.5 16.5h-18q-102 0 -177 36t-123 97t-71.5 144t-23.5 175zM371 668q0 -117 37.5 -175.5t134.5 -58.5h18q59 0 60 51v473q0 25 -12.5 37.5t-47.5 12.5h-18
q-53 0 -86 -18.5t-52.5 -49.5t-26.5 -72t-7 -88v-112zM836 485q0 -51 59 -51h18q96 0 134 58.5t38 175.5v112q0 47 -7 88t-26.5 72t-53 49.5t-85.5 18.5h-18q-35 0 -47 -12.5t-12 -37.5v-473z" />
    <glyph glyph-name="afii10039" unicode="&#x425;" horiz-adv-x="1093" 
d="M106 84q0 14 3.5 26.5t7.5 22.5l250 586q6 18 6 29q0 14 -6 28l-195 508q-4 10 -8 25.5t-4 25.5q0 41 27.5 68t68.5 27q29 0 53.5 -14.5t36.5 -49.5l150 -395q16 -43 25 -60.5t26 -17.5q16 0 25.5 17.5t25.5 60.5l150 395q12 35 36.5 49.5t55.5 14.5q39 0 66.5 -28
t27.5 -69q0 -14 -3 -26.5t-7 -22.5l-195 -508q-6 -14 -6 -28q0 -10 6 -29l248 -586q10 -25 10 -49q0 -43 -27.5 -70.5t-66.5 -27.5q-66 0 -92 65l-203 473q-18 43 -26.5 60.5t-24.5 17.5t-24.5 -17.5t-26.5 -60.5l-203 -473q-29 -66 -92 -65q-39 0 -67 27.5t-28 70.5z" />
    <glyph glyph-name="afii10040" unicode="&#x426;" horiz-adv-x="1331" 
d="M272 92v1233q0 39 27 65.5t66 26.5h30q41 0 66.5 -26.5t25.5 -65.5v-1083q0 -23 14.5 -40.5t45.5 -17.5h237q23 0 42.5 15.5t17.5 42.5v1083q0 37 25.5 64.5t66.5 27.5h33q39 0 64.5 -27.5t25.5 -64.5v-1083q0 -23 13 -40.5t46 -17.5h56q27 0 43 -17t16 -40v-297
q0 -41 -24.5 -66.5t-65.5 -25.5h-25q-41 0 -66.5 25.5t-25.5 66.5v113q0 25 -16.5 41t-42.5 16h-602q-37 0 -65 25.5t-28 66.5z" />
    <glyph glyph-name="afii10041" unicode="&#x427;" horiz-adv-x="1249" 
d="M199 897v428q0 41 28.5 66.5t63.5 25.5h33q35 0 62.5 -25.5t27.5 -66.5v-422q0 -174 168 -174q53 0 88 12.5t55 29.5t28.5 36.5t8.5 36.5v481q0 41 27.5 66.5t64.5 25.5h33q37 0 63.5 -26.5t26.5 -65.5v-1233q0 -41 -27.5 -66.5t-62.5 -25.5h-33q-35 0 -63.5 25.5
t-28.5 66.5v459q0 16 -3 27.5t-16 11.5q-14 0 -29.5 -7.5t-40 -14.5t-60 -14t-89.5 -7q-66 0 -125 21.5t-103 65.5t-70.5 109.5t-26.5 153.5z" />
    <glyph glyph-name="afii10042" unicode="&#x428;" horiz-adv-x="1796" 
d="M272 92v1233q0 37 26 64.5t67 27.5h32q41 0 65.5 -26.5t24.5 -65.5v-1083q0 -23 16.5 -40.5t43.5 -17.5h184q23 0 41.5 14.5t18.5 43.5v1083q0 41 25.5 66.5t66.5 25.5h32q39 0 65 -26.5t26 -65.5v-1083q0 -23 16 -40.5t43 -17.5h184q27 0 43.5 15.5t16.5 42.5v1083
q0 41 26.5 66.5t65.5 25.5h33q39 0 64.5 -26.5t25.5 -65.5v-1233q0 -41 -24.5 -66.5t-65.5 -25.5h-1069q-41 0 -67 25.5t-26 66.5z" />
    <glyph glyph-name="afii10043" unicode="&#x429;" horiz-adv-x="1796" 
d="M272 92v1233q0 41 26 66.5t67 25.5h32q41 0 65.5 -25.5t24.5 -66.5v-1083q0 -23 13.5 -40.5t46.5 -17.5h184q29 0 44.5 17.5t15.5 40.5v1083q0 41 25.5 66.5t66.5 25.5h32q41 0 66 -25.5t25 -66.5v-1083q0 -23 15 -40.5t44 -17.5h184q27 0 43.5 14.5t16.5 43.5v1083
q0 41 25.5 66.5t66.5 25.5h33q47 0 68.5 -29.5t21.5 -62.5v-1083q0 -23 12 -40.5t47 -17.5h55q27 0 43.5 -17t16.5 -40v-297q0 -41 -24.5 -66.5t-65.5 -25.5h-25q-41 0 -66.5 25.5t-25.5 66.5v113q0 23 -16.5 40t-42.5 17h-1067q-41 0 -67 25.5t-26 66.5z" />
    <glyph glyph-name="afii10044" unicode="&#x42a;" horiz-adv-x="1355" 
d="M104 1315v10q0 41 27 66.5t68 25.5h321q37 0 63.5 -26.5t26.5 -65.5v-397q0 -25 14.5 -42.5t45.5 -17.5h106q86 0 166 -27.5t141.5 -78.5t99.5 -125t38 -166v-59q0 -80 -30 -155t-85 -131t-131 -91t-168 -35h-320q-39 0 -65.5 25.5t-26.5 66.5v1090q0 18 -13 29.5
t-28 11.5h-155q-41 0 -68 24.5t-27 67.5zM610 252q0 -23 18.5 -40t41.5 -17h129q49 0 88 17t64.5 47t39 66.5t13.5 73.5v70q0 104 -63.5 154.5t-162.5 50.5h-108q-25 0 -42.5 -16.5t-17.5 -41.5v-364z" />
    <glyph glyph-name="afii10045" unicode="&#x42b;" horiz-adv-x="1789" 
d="M272 92v1233q0 41 28 66.5t65 25.5h30q41 0 66.5 -27.5t25.5 -64.5v-397q0 -25 15.5 -42.5t44.5 -17.5h90q129 0 217 -40t142.5 -100t78 -130t23.5 -127v-59q0 -86 -35 -162t-92.5 -131.5t-132 -87t-154.5 -31.5h-319q-39 0 -66 25.5t-27 66.5zM487 252q0 -23 18.5 -40
t41.5 -17h129q41 0 78 15t65.5 42t45 64.5t16.5 82.5v70q0 80 -56.5 142.5t-169.5 62.5h-108q-29 0 -44.5 -16.5t-15.5 -41.5v-364zM1303 92v1231q0 41 26.5 67.5t65.5 26.5h28q43 0 69 -27.5t26 -64.5v-1233q0 -39 -26 -65.5t-67 -26.5h-30q-41 0 -66.5 27.5t-25.5 64.5z
" />
    <glyph glyph-name="afii10046" unicode="&#x42c;" horiz-adv-x="1249" 
d="M272 92v1233q0 41 27 66.5t66 25.5h28q41 0 67.5 -26.5t26.5 -65.5v-397q0 -25 17.5 -42.5t42.5 -17.5h106q129 0 217 -40t142.5 -100t78 -130t23.5 -127v-59q0 -86 -35 -162t-92 -131.5t-132 -87t-155 -31.5h-335q-39 0 -66 25.5t-27 66.5zM487 252q0 -23 18.5 -40
t41.5 -17h145q41 0 78 15t65.5 42t45 64.5t16.5 82.5v70q0 80 -56.5 142.5t-168.5 62.5h-125q-25 0 -42.5 -16.5t-17.5 -41.5v-364z" />
    <glyph glyph-name="afii10047" unicode="&#x42d;" horiz-adv-x="1126" 
d="M135 168q0 6 4 21.5t15 33.5l6 10q10 14 29.5 31t50.5 17q25 0 37 -6.5t28 -16.5l78 -51q23 -16 52.5 -27.5t70.5 -11.5q35 0 71.5 11t65.5 38q51 47 60.5 110.5t9.5 121.5v124q0 25 -17.5 41.5t-42.5 16.5h-233q-39 0 -65.5 26.5t-26.5 65.5t26.5 65.5t65.5 26.5h233
q25 0 42.5 17.5t17.5 41.5v64q0 78 -7.5 141.5t-56.5 112.5q-20 20 -55 38.5t-88 18.5q-25 0 -54.5 -7t-68.5 -32l-80 -53l-22 -13q-12 -7 -39 -7q-33 0 -53.5 17t-28.5 30l-6 10q-18 33 -19 55q0 41 27.5 63.5t62.5 43.5q45 27 116 57.5t165 30.5t163.5 -32t116.5 -73
q45 -41 74 -85t44.5 -89t20.5 -87t5 -79v-507q0 -51 -2 -101.5t-13.5 -99.5t-35 -96.5t-64.5 -92.5q-18 -20 -46 -42.5t-65.5 -42t-87 -32t-110.5 -12.5q-78 0 -136.5 20.5t-93.5 39.5l-61 35q-31 16 -55.5 39.5t-24.5 60.5z" />
    <glyph glyph-name="afii10048" unicode="&#x42e;" horiz-adv-x="1748" 
d="M272 92v1229q0 41 27 68.5t66 27.5h32q37 0 63.5 -26.5t26.5 -69.5v-449q0 -23 12.5 -40t43.5 -17h119q33 0 46 19.5t13 44.5v120q0 84 26.5 164t79 142.5t130 100.5t180.5 38q96 0 172.5 -35t131 -95.5t83 -141t28.5 -173.5v-581q0 -78 -25.5 -158t-76.5 -143.5
t-129 -103.5t-184 -40q-100 0 -177 37t-130.5 98.5t-81 142.5t-27.5 167v155q0 23 -14.5 40.5t-44.5 17.5h-115q-29 0 -44.5 -17.5t-15.5 -40.5v-481q0 -39 -27.5 -65.5t-64.5 -26.5h-28q-41 0 -68 27.5t-27 64.5zM938 420q0 -47 10 -93t34 -81t61.5 -56.5t93.5 -21.5
q51 0 88 20.5t61.5 54t36.5 78t12 91.5v594q0 45 -10 89t-33.5 77.5t-61.5 55t-93 21.5q-53 0 -91 -19.5t-61.5 -53t-35 -77.5t-11.5 -95v-584z" />
    <glyph glyph-name="afii10049" unicode="&#x42f;" horiz-adv-x="1314" 
d="M197 977q0 94 29.5 174t84 139.5t133 93t177.5 33.5h329q39 0 65.5 -26.5t26.5 -65.5v-1233q0 -39 -26.5 -65.5t-65.5 -26.5h-32q-39 0 -66 26.5t-27 65.5v346q0 25 -15 43.5t-44 18.5h-86q-37 0 -53 -29l-197 -426q-31 -59 -96 -59q-39 0 -70 26.5t-31 71.5q0 20 15 53
l168 371l8 20q0 12 -16 23q-57 33 -97.5 70.5t-66 88t-36.5 116t-11 151.5zM414 954q0 -121 50 -190.5t169 -69.5h133q25 0 42 18.5t17 41.5v411q0 25 -17 41.5t-42 16.5h-133q-63 0 -105.5 -17.5t-68 -50.5t-35.5 -77t-10 -99v-25z" />
    <glyph glyph-name="afii10065" unicode="&#x430;" horiz-adv-x="1187" 
d="M135 74q0 10 1 18t3 19l240 1185q12 59 53 103.5t107 44.5h110q66 0 107 -44t53 -104l240 -1185q2 -10 3 -18.5t1 -18.5q0 -47 -30 -66.5t-67 -19.5h-6q-39 0 -63.5 22.5t-32.5 63.5l-33 166q-4 25 -20.5 43t-42.5 18h-328q-27 0 -43 -18.5t-20 -42.5l-33 -166
q-8 -41 -33 -63.5t-63 -22.5h-7q-37 0 -66.5 19.5t-29.5 66.5zM424 516q0 -12 8 -21.5t29 -9.5h266q20 0 28.5 9.5t8.5 21.5q0 10 -4 31l-139 694q-4 27 -27 27t-27 -27l-139 -694q-4 -21 -4 -31z" />
    <glyph glyph-name="afii10066" unicode="&#x431;" horiz-adv-x="1292" 
d="M272 92v1233q0 39 27 65.5t66 26.5h573q39 0 64.5 -26.5t25.5 -65.5v-10q0 -45 -26.5 -68.5t-63.5 -23.5h-389q-25 0 -42.5 -16.5t-17.5 -41.5v-258q0 -25 17.5 -42t42.5 -17h106q129 0 217.5 -40t142.5 -100.5t77.5 -130t23.5 -126.5v-39q0 -86 -34.5 -162t-92 -131.5
t-132.5 -87t-155 -31.5h-337q-39 0 -66 25.5t-27 66.5zM489 252q0 -23 18.5 -40t41.5 -17h145q41 0 78 15t65.5 42t45 64.5t16.5 82.5v50q0 80 -56.5 142t-168.5 62h-125q-25 0 -42.5 -16t-17.5 -41v-344z" />
    <glyph glyph-name="afii10067" unicode="&#x432;" horiz-adv-x="1312" 
d="M272 92v1233q0 39 27 65.5t66 26.5h319q84 0 156.5 -30.5t126 -85t85 -126t31.5 -155.5q0 -141 -84 -244q-16 -20 -16 -41q0 -23 18 -41q55 -53 85 -125.5t30 -156.5q0 -86 -32.5 -161t-89 -130t-131.5 -88t-161 -33h-337q-39 0 -66 26.5t-27 65.5zM489 252
q0 -25 17.5 -41t42.5 -16h145q86 0 145.5 59t59.5 145v21q0 86 -59.5 145.5t-145.5 59.5h-145q-25 0 -42.5 -16.5t-17.5 -41.5v-315zM489 879q0 -25 17.5 -42.5t42.5 -17.5h127q39 0 73.5 15.5t60.5 41t41 61.5t15 75v18q0 39 -15 74t-41 61.5t-60.5 42t-73.5 15.5h-127
q-25 0 -42.5 -16.5t-17.5 -41.5v-286z" />
    <glyph glyph-name="afii10068" unicode="&#x433;" horiz-adv-x="1093" 
d="M272 92v1233q0 39 27 65.5t66 26.5h585q39 0 64.5 -26.5t25.5 -65.5v-10q0 -41 -25.5 -66.5t-64.5 -25.5h-401q-25 0 -42.5 -16.5t-17.5 -41.5v-1073q0 -39 -26.5 -65.5t-65.5 -26.5h-32q-39 0 -66 26.5t-27 65.5z" />
    <glyph glyph-name="afii10069" unicode="&#x434;" horiz-adv-x="1357" 
d="M102 127q0 23 15.5 40t44.5 17h18q35 0 59.5 54.5t59.5 177.5q8 33 20.5 99.5t23.5 171t18.5 249.5t7.5 334v55q0 41 22.5 66.5t69.5 25.5h532q47 0 68.5 -25.5t21.5 -66.5v-1083q0 -23 15.5 -40.5t44.5 -17.5h45q20 0 39 -14q20 -18 20 -43v-297q0 -41 -24.5 -66.5
t-65.5 -25.5h-24q-41 0 -67 25.5t-26 66.5v113q0 23 -16 40t-43 17h-612q-27 0 -43.5 -15.5t-16.5 -41.5v-113q0 -41 -24.5 -66.5t-65.5 -25.5h-24q-41 0 -67 25.5t-26 66.5v297zM449 215q0 -27 17 -29t26 -2h317q27 0 43 15.5t16 44.5v932q0 23 -14 40t-45 17h-178
q-25 0 -42.5 -16.5t-17.5 -40.5v-134q0 -96 -6 -194t-17 -188.5t-25.5 -166t-28.5 -126.5l-27 -88q-10 -31 -14 -45.5t-4 -18.5z" />
    <glyph glyph-name="afii10070" unicode="&#x435;" horiz-adv-x="1175" 
d="M272 92v1233q0 39 27 65.5t66 26.5h585q39 0 64.5 -26.5t25.5 -65.5v-10q0 -41 -25.5 -66.5t-64.5 -25.5h-401q-25 0 -42.5 -16.5t-17.5 -41.5v-291q0 -25 17.5 -42t42.5 -17h229q39 0 65.5 -26.5t26.5 -65.5t-26.5 -65.5t-65.5 -26.5h-229q-25 0 -42.5 -16.5
t-17.5 -41.5v-321q0 -25 17.5 -41t42.5 -16h401q39 0 64.5 -27t25.5 -66v-10q0 -39 -25.5 -65.5t-64.5 -26.5h-585q-39 0 -66 26.5t-27 65.5z" />
    <glyph glyph-name="afii10072" unicode="&#x436;" horiz-adv-x="1632" 
d="M172 84q0 14 4 29.5t8 23.5l240 547q10 20 10 35q0 10 -3 19.5t-7 15.5l-225 530q-2 4 -7.5 17.5t-5.5 31.5q0 33 22.5 65t72.5 32q31 0 55 -16.5t37 -47.5l215 -510q18 -45 57 -45h12q18 0 35 10t17 60v444q0 39 26.5 65.5t65.5 26.5h30q39 0 66 -26.5t27 -65.5v-444
q0 -49 16 -59.5t35 -10.5h12q39 0 57 45l216 510q25 63 94 64q41 0 66.5 -28t25.5 -67q0 -18 -4 -29l-8 -22l-226 -530q-4 -6 -7 -15.5t-3 -19.5q0 -14 10 -35l240 -547q4 -8 8 -23.5t4 -29.5q0 -41 -26.5 -69.5t-67.5 -28.5q-63 0 -92 65l-238 541q-10 23 -25.5 33
t-29.5 10h-6q-27 0 -39 -21.5t-12 -48.5v-473q0 -39 -27 -65.5t-66 -26.5h-30q-39 0 -65.5 26.5t-26.5 65.5v473q0 27 -12.5 48.5t-39.5 21.5h-8q-12 0 -27.5 -10.5t-25.5 -32.5l-238 -541q-29 -66 -92 -65q-41 0 -67.5 28.5t-26.5 69.5z" />
    <glyph glyph-name="afii10073" unicode="&#x437;" horiz-adv-x="1155" 
d="M164 168q0 10 4 23.5t14 31.5l6 10q10 14 30 31t50 17q25 0 37 -6.5t29 -16.5l78 -51q23 -16 52.5 -27.5t70.5 -11.5q113 0 159.5 61.5t46.5 173.5v39q0 92 -53 137.5t-125 45.5h-102q-35 0 -59.5 26.5t-24.5 65.5v10q0 25 21.5 58.5t74.5 33.5h82q27 0 60.5 8.5
t60.5 36.5q16 18 28.5 51t12.5 86v60q0 90 -53.5 139t-133.5 49q-20 0 -56 -7t-87 -42q-49 -35 -70.5 -48t-48.5 -13q-29 0 -49 13t-31 32l-6 10q-18 33 -18 55q0 41 26.5 62.5t63.5 44.5q27 16 53.5 29.5t67.5 29.5t75.5 22.5t81.5 6.5q86 0 160 -31t128 -83t84 -123.5
t30 -153.5v-23q0 -53 -12.5 -112.5t-55.5 -118.5l-30 -41q-10 -16 -11 -29q0 -14 6 -20l13 -13l24 -24q31 -31 48.5 -67t26.5 -71.5t12 -67.5t3 -54v-29q0 -184 -106.5 -297t-316.5 -113q-74 0 -137.5 21.5t-92.5 38.5l-61 35q-33 18 -56.5 41.5t-23.5 58.5z" />
    <glyph glyph-name="afii10074" unicode="&#x438;" horiz-adv-x="1359" 
d="M272 92v1231q0 41 29 67.5t70 26.5h22q39 0 66.5 -26.5t27.5 -65.5v-610l-4 -121q0 -8 2 -19.5t17 -11.5q12 0 17 17.5t16 37.5l321 721q18 39 46 58.5t73 19.5h18q41 0 67.5 -25.5t26.5 -66.5v-1233q0 -41 -25.5 -66.5t-66.5 -25.5h-30q-49 0 -71 28.5t-22 63.5v610
l5 121q0 8 -2.5 19.5t-16.5 11.5t-19 -17.5t-14 -37.5l-30 -78l-291 -643q-20 -43 -47 -60.5t-74 -17.5h-18q-43 0 -68 26.5t-25 65.5z" />
    <glyph glyph-name="afii10075" unicode="&#x439;" horiz-adv-x="1359" 
d="M272 92v1231q0 41 29 67.5t70 26.5h22q39 0 66.5 -26.5t27.5 -65.5v-610l-4 -121q0 -8 2 -19.5t17 -11.5q12 0 17 17.5t16 37.5l321 721q18 39 46 58.5t73 19.5h18q41 0 67.5 -25.5t26.5 -66.5v-1233q0 -41 -25.5 -66.5t-66.5 -25.5h-30q-49 0 -71 28.5t-22 63.5v610
l5 121q0 8 -2.5 19.5t-16.5 11.5t-19 -17.5t-14 -37.5l-30 -78l-291 -643q-20 -43 -47 -60.5t-74 -17.5h-18q-43 0 -68 26.5t-25 65.5zM395 1663q0 23 8.5 37t18.5 22q12 10 25.5 18.5t35.5 8.5q12 0 28.5 -5t35.5 -32l16 -24q20 -31 43 -49.5t74 -18.5t73.5 18.5t43.5 49.5
l16 24q18 27 34.5 32t29.5 5q23 0 36 -8t25 -19q10 -8 18.5 -22t8.5 -37q0 -14 -5.5 -33.5t-19.5 -40.5l-22 -30q-43 -59 -102.5 -79t-135.5 -20t-135.5 19.5t-102.5 79.5l-22 30q-14 20 -19.5 40t-5.5 34z" />
    <glyph glyph-name="afii10076" unicode="&#x43a;" horiz-adv-x="1245" 
d="M272 92v1233q0 39 27 65.5t66 26.5h30q39 0 65.5 -26.5t26.5 -65.5v-444q0 -29 16.5 -44.5t43.5 -15.5h12q18 0 34.5 9.5t22.5 25.5l234 510q27 63 92 64q39 0 66.5 -28t27.5 -69q0 -14 -4 -26.5t-8 -22.5l-238 -530q-10 -20 -10 -35q0 -14 10 -35l250 -547
q12 -25 13 -53q0 -43 -28 -70.5t-67 -27.5q-61 0 -92 65l-254 541q-14 31 -51 31h-10q-25 0 -42.5 -16.5t-17.5 -41.5v-473q0 -39 -26.5 -65.5t-65.5 -26.5h-30q-39 0 -66 26.5t-27 65.5z" />
    <glyph glyph-name="afii10077" unicode="&#x43b;" horiz-adv-x="1355" 
d="M92 92q0 37 20.5 55.5t34.5 26.5l58 35q45 29 72.5 71t42 94t20.5 109.5t10 116.5q2 33 4 98.5t4 141t3 148.5t1 120v217q0 39 27 65.5t66 26.5h538q37 0 63.5 -26.5t26.5 -65.5v-1233q0 -39 -26.5 -65.5t-63.5 -26.5h-32q-39 0 -66 26.5t-27 65.5v1084q0 23 -13 40
t-42 17h-190q-29 0 -43.5 -18.5t-14.5 -38.5v-138q0 -166 -5 -289.5t-14 -214t-22.5 -153t-27.5 -107.5q-39 -111 -98.5 -173t-123.5 -97l-26 -14q-27 -16 -55 -17q-33 0 -51.5 18.5t-26.5 33.5l-13 22q-10 25 -10 45z" />
    <glyph glyph-name="afii10078" unicode="&#x43c;" horiz-adv-x="1552" 
d="M272 92v1233q0 39 27 65.5t66 26.5h28q37 0 68 -17.5t53 -60.5l203 -403q23 -41 33 -73t26 -32t26.5 32t33.5 73l202 403q23 43 53.5 60.5t67.5 17.5h29q39 0 65.5 -26.5t26.5 -65.5v-1233q0 -39 -26.5 -65.5t-65.5 -26.5h-33q-39 0 -64.5 26.5t-25.5 65.5v703
q0 59 2 82.5t2 37.5q0 31 -18 31q-16 0 -28.5 -36t-45.5 -101l-66 -131q-16 -33 -43.5 -55.5t-64.5 -22.5h-53q-37 0 -65 22.5t-44 55.5l-66 131q-33 66 -45 101.5t-28 35.5q-18 0 -19 -31q0 -14 2 -37.5t2 -82.5v-703q0 -39 -25.5 -65.5t-64.5 -26.5h-32q-39 0 -66 26.5
t-27 65.5z" />
    <glyph glyph-name="afii10079" unicode="&#x43d;" horiz-adv-x="1331" 
d="M272 92v1233q0 39 27 65.5t66 26.5h32q39 0 64.5 -26.5t25.5 -65.5v-451q0 -25 18.5 -42t41.5 -17h237q25 0 42.5 17.5t17.5 41.5v451q0 39 26.5 65.5t65.5 26.5h31q39 0 65.5 -26.5t26.5 -65.5v-1233q0 -39 -26.5 -65.5t-65.5 -26.5h-31q-39 0 -65.5 26.5t-26.5 65.5
v481q0 25 -17.5 41.5t-42.5 16.5h-237q-23 0 -41.5 -16.5t-18.5 -41.5v-481q0 -39 -25.5 -65.5t-64.5 -26.5h-32q-39 0 -66 26.5t-27 65.5z" />
    <glyph glyph-name="afii10080" unicode="&#x43e;" horiz-adv-x="1241" 
d="M197 492v434q0 53 1 89t4 60.5t7 42t8 31.5q20 66 59 119t91.5 93t117 61.5t136.5 21.5t136 -21.5t116.5 -61.5t91.5 -93.5t59 -118.5q4 -14 8 -31.5t7 -42t4 -60.5t1 -89v-434q0 -53 -1 -89t-4 -61t-7 -42t-8 -32q-20 -63 -59 -117.5t-91.5 -94.5t-117 -61.5
t-135.5 -21.5q-72 0 -136.5 21.5t-117 61.5t-91 94.5t-59.5 117.5q-4 14 -8 31.5t-7 42.5t-4 61t-1 89zM414 479q0 -47 1 -78.5t4 -52t6 -32t7 -21.5q23 -57 73 -92t116 -35t115.5 35t72.5 92q4 10 7 21.5t6 32t4 52t1 78.5v459q0 47 -1 79t-4 52.5t-6 32.5t-7 20
q-23 57 -73 92t-115 35q-66 0 -116 -34.5t-73 -92.5q-4 -8 -7 -20t-6 -32.5t-4 -52.5t-1 -79v-459z" />
    <glyph glyph-name="afii10081" unicode="&#x43f;" horiz-adv-x="1331" 
d="M272 92v1233q0 41 26 66.5t67 25.5h604q41 0 65.5 -25.5t24.5 -66.5v-1233q0 -41 -26.5 -66.5t-63.5 -25.5h-33q-39 0 -65.5 25.5t-26.5 66.5v1084q0 23 -16.5 40t-43.5 17h-237q-27 0 -43.5 -17.5t-16.5 -39.5v-1084q0 -39 -26.5 -65.5t-63.5 -26.5h-32q-41 0 -67 25.5
t-26 66.5z" />
    <glyph glyph-name="afii10082" unicode="&#x440;" horiz-adv-x="1251" 
d="M272 92v1233q0 39 27 65.5t66 26.5h327q72 0 136.5 -21.5t116.5 -61.5t91 -93t60 -119q10 -29 15 -67.5t5 -112.5t-5 -112.5t-15 -67.5q-20 -63 -59.5 -117.5t-91.5 -94.5t-116.5 -61.5t-136.5 -21.5h-145q-25 0 -42.5 -18.5t-17.5 -42.5v-314q0 -39 -26.5 -65.5
t-65.5 -26.5h-30q-39 0 -66 26.5t-27 65.5zM487 721q0 -23 17.5 -41t42.5 -18h145q66 0 116 34.5t73 91.5q8 18 13 48t5 94v24q0 63 -5 93t-13 49q-23 57 -73 92t-116 35h-145q-25 0 -42.5 -16.5t-17.5 -41.5v-444z" />
    <glyph glyph-name="afii10083" unicode="&#x441;" horiz-adv-x="1126" 
d="M197 492v434q0 53 1 89t4 60.5t7 42t8 31.5q20 66 59 119t91.5 93t117 61.5t136.5 21.5t127 -17.5t102 -42.5q33 -16 49 -26l39 -25q31 -20 42 -40.5t11 -43.5q0 -25 -18 -55l-6 -10q-31 -47 -80 -47q-31 0 -53 14l-91 59q-29 18 -57.5 28.5t-64.5 10.5q-66 0 -116 -34.5
t-73 -92.5q-4 -8 -7 -20t-6 -32.5t-4 -52.5t-1 -79v-459q0 -47 1 -78.5t4 -52t6 -32t7 -21.5q23 -57 73 -92t116 -35q37 0 65.5 10t56.5 29l91 59q23 14 53 15q49 0 80 -48l6 -10q18 -31 18 -55q0 -23 -11 -43.5t-42 -40.5l-39 -25q-16 -10 -49 -26q-47 -25 -102.5 -42.5
t-126.5 -17.5q-72 0 -136.5 21.5t-117 61.5t-91 94.5t-59.5 117.5q-4 14 -8 31.5t-7 42.5t-4 61t-1 89z" />
    <glyph glyph-name="afii10084" unicode="&#x442;" 
d="M135 1315v10q0 39 26.5 65.5t65.5 26.5h611q39 0 65.5 -26.5t26.5 -65.5v-10q0 -41 -26.5 -66.5t-65.5 -25.5h-156q-16 0 -28.5 -12.5t-12.5 -28.5v-1090q0 -39 -26.5 -65.5t-65.5 -26.5h-33q-39 0 -65.5 26.5t-26.5 65.5v1090q0 16 -12.5 28.5t-28.5 12.5h-156
q-39 0 -65.5 25.5t-26.5 66.5z" />
    <glyph glyph-name="afii10085" unicode="&#x443;" horiz-adv-x="1103" 
d="M137 1335q0 47 26.5 71t63.5 24h6q8 0 21.5 -1.5t28 -7.5t29 -20.5t24.5 -40.5l203 -533l34 -94q10 -27 16.5 -38t16.5 -11h4q10 0 16.5 18.5t12.5 40.5l10 39l162 572q8 29 22.5 44t30 22t28.5 8.5t19 1.5h7q41 0 64.5 -25t23.5 -64q0 -10 -2.5 -19t-6.5 -24l-276 -901
q-25 -84 -50.5 -148.5t-60.5 -112.5t-84 -82t-123 -56l-38 -12l-29 -9q-14 -4 -31 -4q-20 0 -37.5 12.5t-34.5 45.5l-4 8q-4 8 -8 23.5t-4 37.5q0 39 25.5 54.5t38.5 19.5l79 23q27 8 51.5 20t44 32.5t32 51.5t12.5 74q0 27 -11 53l-344 866q-4 10 -6 20.5t-2 20.5z" />
    <glyph glyph-name="afii10086" unicode="&#x444;" horiz-adv-x="1456" 
d="M156 702v39q0 207 99 329t296 122h10q45 0 52.5 16.5t7.5 44.5v105q0 39 26.5 65.5t65.5 26.5h32q41 0 66 -26.5t25 -65.5v-105q0 -29 8 -45t49 -16h18q94 0 167 -32t122 -88t74.5 -134t25.5 -168v-96q0 -76 -22.5 -152t-69.5 -136t-120.5 -98t-176.5 -38h-24
q-35 0 -43 -16.5t-8 -45.5v-120q0 -37 -26 -65t-67 -28h-30q-35 0 -63.5 26t-28.5 67v120q0 29 -8.5 45.5t-43.5 16.5h-18q-102 0 -177 36t-123 97t-71.5 144t-23.5 175zM371 668q0 -117 37.5 -175.5t134.5 -58.5h18q59 0 60 51v473q0 25 -12.5 37.5t-47.5 12.5h-18
q-53 0 -86 -18.5t-52.5 -49.5t-26.5 -72t-7 -88v-112zM836 485q0 -51 59 -51h18q96 0 134 58.5t38 175.5v112q0 47 -7 88t-26.5 72t-53 49.5t-85.5 18.5h-18q-35 0 -47 -12.5t-12 -37.5v-473z" />
    <glyph glyph-name="afii10087" unicode="&#x445;" horiz-adv-x="1093" 
d="M106 84q0 14 3.5 26.5t7.5 22.5l250 586q6 18 6 29q0 14 -6 28l-195 508q-4 10 -8 25.5t-4 25.5q0 41 27.5 68t68.5 27q29 0 53.5 -14.5t36.5 -49.5l150 -395q16 -43 25 -60.5t26 -17.5q16 0 25.5 17.5t25.5 60.5l150 395q12 35 36.5 49.5t55.5 14.5q39 0 66.5 -28
t27.5 -69q0 -14 -3 -26.5t-7 -22.5l-195 -508q-6 -14 -6 -28q0 -10 6 -29l248 -586q10 -25 10 -49q0 -43 -27.5 -70.5t-66.5 -27.5q-66 0 -92 65l-203 473q-18 43 -26.5 60.5t-24.5 17.5t-24.5 -17.5t-26.5 -60.5l-203 -473q-29 -66 -92 -65q-39 0 -67 27.5t-28 70.5z" />
    <glyph glyph-name="afii10088" unicode="&#x446;" horiz-adv-x="1331" 
d="M272 92v1233q0 39 27 65.5t66 26.5h30q41 0 66.5 -26.5t25.5 -65.5v-1083q0 -23 14.5 -40.5t45.5 -17.5h237q23 0 42.5 15.5t17.5 42.5v1083q0 37 25.5 64.5t66.5 27.5h33q39 0 64.5 -27.5t25.5 -64.5v-1083q0 -23 13 -40.5t46 -17.5h56q27 0 43 -17t16 -40v-297
q0 -41 -24.5 -66.5t-65.5 -25.5h-25q-41 0 -66.5 25.5t-25.5 66.5v113q0 25 -16.5 41t-42.5 16h-602q-37 0 -65 25.5t-28 66.5z" />
    <glyph glyph-name="afii10089" unicode="&#x447;" horiz-adv-x="1249" 
d="M199 897v428q0 41 28.5 66.5t63.5 25.5h33q35 0 62.5 -25.5t27.5 -66.5v-422q0 -174 168 -174q53 0 88 12.5t55 29.5t28.5 36.5t8.5 36.5v481q0 41 27.5 66.5t64.5 25.5h33q37 0 63.5 -26.5t26.5 -65.5v-1233q0 -41 -27.5 -66.5t-62.5 -25.5h-33q-35 0 -63.5 25.5
t-28.5 66.5v459q0 16 -3 27.5t-16 11.5q-14 0 -29.5 -7.5t-40 -14.5t-60 -14t-89.5 -7q-66 0 -125 21.5t-103 65.5t-70.5 109.5t-26.5 153.5z" />
    <glyph glyph-name="afii10090" unicode="&#x448;" horiz-adv-x="1796" 
d="M272 92v1233q0 37 26 64.5t67 27.5h32q41 0 65.5 -26.5t24.5 -65.5v-1083q0 -23 16.5 -40.5t43.5 -17.5h184q23 0 41.5 14.5t18.5 43.5v1083q0 41 25.5 66.5t66.5 25.5h32q39 0 65 -26.5t26 -65.5v-1083q0 -23 16 -40.5t43 -17.5h184q27 0 43.5 15.5t16.5 42.5v1083
q0 41 26.5 66.5t65.5 25.5h33q39 0 64.5 -26.5t25.5 -65.5v-1233q0 -41 -24.5 -66.5t-65.5 -25.5h-1069q-41 0 -67 25.5t-26 66.5z" />
    <glyph glyph-name="afii10091" unicode="&#x449;" horiz-adv-x="1796" 
d="M272 92v1233q0 41 26 66.5t67 25.5h32q41 0 65.5 -25.5t24.5 -66.5v-1083q0 -23 13.5 -40.5t46.5 -17.5h184q29 0 44.5 17.5t15.5 40.5v1083q0 41 25.5 66.5t66.5 25.5h32q41 0 66 -25.5t25 -66.5v-1083q0 -23 15 -40.5t44 -17.5h184q27 0 43.5 14.5t16.5 43.5v1083
q0 41 25.5 66.5t66.5 25.5h33q47 0 68.5 -29.5t21.5 -62.5v-1083q0 -23 12 -40.5t47 -17.5h55q27 0 43.5 -17t16.5 -40v-297q0 -41 -24.5 -66.5t-65.5 -25.5h-25q-41 0 -66.5 25.5t-25.5 66.5v113q0 23 -16.5 40t-42.5 17h-1067q-41 0 -67 25.5t-26 66.5z" />
    <glyph glyph-name="afii10092" unicode="&#x44a;" horiz-adv-x="1355" 
d="M104 1315v10q0 41 27 66.5t68 25.5h321q37 0 63.5 -26.5t26.5 -65.5v-397q0 -25 14.5 -42.5t45.5 -17.5h106q86 0 166 -27.5t141.5 -78.5t99.5 -125t38 -166v-59q0 -80 -30 -155t-85 -131t-131 -91t-168 -35h-320q-39 0 -65.5 25.5t-26.5 66.5v1090q0 18 -13 29.5
t-28 11.5h-155q-41 0 -68 24.5t-27 67.5zM610 252q0 -23 18.5 -40t41.5 -17h129q49 0 88 17t64.5 47t39 66.5t13.5 73.5v70q0 104 -63.5 154.5t-162.5 50.5h-108q-25 0 -42.5 -16.5t-17.5 -41.5v-364z" />
    <glyph glyph-name="afii10093" unicode="&#x44b;" horiz-adv-x="1789" 
d="M272 92v1233q0 41 28 66.5t65 25.5h30q41 0 66.5 -27.5t25.5 -64.5v-397q0 -25 15.5 -42.5t44.5 -17.5h90q129 0 217 -40t142.5 -100t78 -130t23.5 -127v-59q0 -86 -35 -162t-92.5 -131.5t-132 -87t-154.5 -31.5h-319q-39 0 -66 25.5t-27 66.5zM487 252q0 -23 18.5 -40
t41.5 -17h129q41 0 78 15t65.5 42t45 64.5t16.5 82.5v70q0 80 -56.5 142.5t-169.5 62.5h-108q-29 0 -44.5 -16.5t-15.5 -41.5v-364zM1303 92v1231q0 41 26.5 67.5t65.5 26.5h28q43 0 69 -27.5t26 -64.5v-1233q0 -39 -26 -65.5t-67 -26.5h-30q-41 0 -66.5 27.5t-25.5 64.5z
" />
    <glyph glyph-name="afii10094" unicode="&#x44c;" horiz-adv-x="1249" 
d="M272 92v1233q0 41 27 66.5t66 25.5h28q41 0 67.5 -26.5t26.5 -65.5v-397q0 -25 17.5 -42.5t42.5 -17.5h106q129 0 217 -40t142.5 -100t78 -130t23.5 -127v-59q0 -86 -35 -162t-92 -131.5t-132 -87t-155 -31.5h-335q-39 0 -66 25.5t-27 66.5zM487 252q0 -23 18.5 -40
t41.5 -17h145q41 0 78 15t65.5 42t45 64.5t16.5 82.5v70q0 80 -56.5 142.5t-168.5 62.5h-125q-25 0 -42.5 -16.5t-17.5 -41.5v-364z" />
    <glyph glyph-name="afii10095" unicode="&#x44d;" horiz-adv-x="1126" 
d="M135 168q0 6 4 21.5t15 33.5l6 10q10 14 29.5 31t50.5 17q25 0 37 -6.5t28 -16.5l78 -51q23 -16 52.5 -27.5t70.5 -11.5q35 0 71.5 11t65.5 38q51 47 60.5 110.5t9.5 121.5v124q0 25 -17.5 41.5t-42.5 16.5h-233q-39 0 -65.5 26.5t-26.5 65.5t26.5 65.5t65.5 26.5h233
q25 0 42.5 17.5t17.5 41.5v64q0 78 -7.5 141.5t-56.5 112.5q-20 20 -55 38.5t-88 18.5q-25 0 -54.5 -7t-68.5 -32l-80 -53l-22 -13q-12 -7 -39 -7q-33 0 -53.5 17t-28.5 30l-6 10q-18 33 -19 55q0 41 27.5 63.5t62.5 43.5q45 27 116 57.5t165 30.5t163.5 -32t116.5 -73
q45 -41 74 -85t44.5 -89t20.5 -87t5 -79v-507q0 -51 -2 -101.5t-13.5 -99.5t-35 -96.5t-64.5 -92.5q-18 -20 -46 -42.5t-65.5 -42t-87 -32t-110.5 -12.5q-78 0 -136.5 20.5t-93.5 39.5l-61 35q-31 16 -55.5 39.5t-24.5 60.5z" />
    <glyph glyph-name="afii10096" unicode="&#x44e;" horiz-adv-x="1748" 
d="M272 92v1229q0 41 27 68.5t66 27.5h32q37 0 63.5 -26.5t26.5 -69.5v-449q0 -23 12.5 -40t43.5 -17h119q33 0 46 19.5t13 44.5v120q0 84 26.5 164t79 142.5t130 100.5t180.5 38q96 0 172.5 -35t131 -95.5t83 -141t28.5 -173.5v-581q0 -78 -25.5 -158t-76.5 -143.5
t-129 -103.5t-184 -40q-100 0 -177 37t-130.5 98.5t-81 142.5t-27.5 167v155q0 23 -14.5 40.5t-44.5 17.5h-115q-29 0 -44.5 -17.5t-15.5 -40.5v-481q0 -39 -27.5 -65.5t-64.5 -26.5h-28q-41 0 -68 27.5t-27 64.5zM938 420q0 -47 10 -93t34 -81t61.5 -56.5t93.5 -21.5
q51 0 88 20.5t61.5 54t36.5 78t12 91.5v594q0 45 -10 89t-33.5 77.5t-61.5 55t-93 21.5q-53 0 -91 -19.5t-61.5 -53t-35 -77.5t-11.5 -95v-584z" />
    <glyph glyph-name="afii10097" unicode="&#x44f;" horiz-adv-x="1314" 
d="M197 977q0 94 29.5 174t84 139.5t133 93t177.5 33.5h329q39 0 65.5 -26.5t26.5 -65.5v-1233q0 -39 -26.5 -65.5t-65.5 -26.5h-32q-39 0 -66 26.5t-27 65.5v346q0 25 -15 43.5t-44 18.5h-86q-37 0 -53 -29l-197 -426q-31 -59 -96 -59q-39 0 -70 26.5t-31 71.5q0 20 15 53
l168 371l8 20q0 12 -16 23q-57 33 -97.5 70.5t-66 88t-36.5 116t-11 151.5zM414 954q0 -121 50 -190.5t169 -69.5h133q25 0 42 18.5t17 41.5v411q0 25 -17 41.5t-42 16.5h-133q-63 0 -105.5 -17.5t-68 -50.5t-35.5 -77t-10 -99v-25z" />
    <glyph glyph-name="uni2000" unicode="&#x2000;" horiz-adv-x="950" 
 />
    <glyph glyph-name="uni2001" unicode="&#x2001;" horiz-adv-x="1900" 
 />
    <glyph glyph-name="uni2002" unicode="&#x2002;" horiz-adv-x="950" 
 />
    <glyph glyph-name="uni2003" unicode="&#x2003;" horiz-adv-x="1900" 
 />
    <glyph glyph-name="uni2004" unicode="&#x2004;" horiz-adv-x="632" 
 />
    <glyph glyph-name="uni2005" unicode="&#x2005;" horiz-adv-x="475" 
 />
    <glyph glyph-name="uni2006" unicode="&#x2006;" horiz-adv-x="315" 
 />
    <glyph glyph-name="uni2007" unicode="&#x2007;" horiz-adv-x="315" 
 />
    <glyph glyph-name="uni2008" unicode="&#x2008;" horiz-adv-x="237" 
 />
    <glyph glyph-name="uni2009" unicode="&#x2009;" horiz-adv-x="378" 
 />
    <glyph glyph-name="uni200A" unicode="&#x200a;" horiz-adv-x="104" 
 />
    <glyph glyph-name="uni2010" unicode="&#x2010;" horiz-adv-x="1093" 
d="M240 602q0 39 27.5 65.5t66.5 26.5h426q39 0 66.5 -26.5t27.5 -65.5t-27.5 -65.5t-66.5 -26.5h-426q-39 0 -66.5 26.5t-27.5 65.5z" />
    <glyph glyph-name="uni2011" unicode="&#x2011;" horiz-adv-x="1093" 
d="M240 602q0 39 27.5 65.5t66.5 26.5h426q39 0 66.5 -26.5t27.5 -65.5t-27.5 -65.5t-66.5 -26.5h-426q-39 0 -66.5 26.5t-27.5 65.5z" />
    <glyph glyph-name="figuredash" unicode="&#x2012;" horiz-adv-x="1093" 
d="M240 602q0 39 27.5 65.5t66.5 26.5h426q39 0 66.5 -26.5t27.5 -65.5t-27.5 -65.5t-66.5 -26.5h-426q-39 0 -66.5 26.5t-27.5 65.5z" />
    <glyph glyph-name="endash" unicode="&#x2013;" 
d="M61 602q0 39 28 65.5t67 26.5h753q39 0 67 -26.5t28 -65.5t-28 -65.5t-67 -26.5h-753q-39 0 -67 26.5t-28 65.5z" />
    <glyph glyph-name="emdash" unicode="&#x2014;" horiz-adv-x="2146" 
d="M152 602q0 39 27.5 65.5t66.5 26.5h1655q39 0 66.5 -26.5t27.5 -65.5t-28 -65.5t-66 -26.5h-1655q-39 0 -66.5 26.5t-27.5 65.5z" />
    <glyph glyph-name="quoteleft" unicode="&#x2018;" horiz-adv-x="811" 
d="M293 1059v16q0 8 4 19l131 370q4 12 14.5 30.5t28.5 29.5q16 10 39 10q39 0 70.5 -24.5t31.5 -67.5q0 -10 -4 -27l-78 -387q-10 -43 -40.5 -64.5t-69.5 -21.5q-6 0 -14.5 1t-24.5 5q-39 10 -63.5 40t-24.5 71z" />
    <glyph glyph-name="quoteright" unicode="&#x2019;" horiz-adv-x="811" 
d="M199 1032q0 10 4 27l78 387q10 43 40.5 64.5t69.5 21.5q6 0 14.5 -1t24.5 -5q39 -10 63.5 -40t24.5 -71v-16q0 -8 -4 -19l-131 -370q-4 -12 -14.5 -30.5t-28.5 -29.5q-10 -6 -19.5 -8t-19.5 -2q-39 0 -70.5 24.5t-31.5 67.5z" />
    <glyph glyph-name="quotesinglbase" unicode="&#x201a;" horiz-adv-x="1136" 
d="M453 -272q0 10 4 26l78 387q10 43 40.5 64.5t69.5 21.5q6 0 14.5 -1t24.5 -5q39 -10 63.5 -39.5t24.5 -70.5v-17q0 -8 -4 -18l-131 -371q-4 -12 -14.5 -30.5t-28.5 -28.5q-10 -6 -19.5 -8.5t-19.5 -2.5q-39 0 -70.5 25t-31.5 68z" />
    <glyph glyph-name="quotedblleft" unicode="&#x201c;" 
d="M162 1059v16q0 8 4 19l131 370q4 12 14.5 30.5t28.5 29.5q16 10 39 10q39 0 70.5 -24.5t31.5 -67.5q0 -10 -4 -27l-78 -387q-10 -43 -40.5 -64.5t-69.5 -21.5q-6 0 -14.5 1t-24.5 5q-39 10 -63.5 40t-24.5 71zM584 1059v16q0 8 4 19l131 370q4 12 14 30.5t29 29.5
q16 10 39 10q39 0 70.5 -24.5t31.5 -67.5q0 -10 -4 -27l-78 -387q-10 -43 -40.5 -64.5t-69.5 -21.5q-6 0 -14.5 1t-24.5 5q-39 10 -63.5 40t-24.5 71z" />
    <glyph glyph-name="quotedblright" unicode="&#x201d;" 
d="M162 1032q0 10 4 27l78 387q10 43 40.5 64.5t69.5 21.5q6 0 14.5 -1t24.5 -5q39 -10 63.5 -40t24.5 -71v-16q0 -8 -4 -19l-131 -370q-4 -12 -14 -30.5t-29 -29.5q-10 -6 -19.5 -8t-19.5 -2q-39 0 -70.5 24.5t-31.5 67.5zM584 1032q0 10 4 27l78 387q10 43 40.5 64.5
t69.5 21.5q6 0 14.5 -1t24.5 -5q39 -10 63.5 -40t24.5 -71v-16q0 -8 -4 -19l-131 -370q-4 -12 -14.5 -30.5t-28.5 -29.5q-10 -6 -19.5 -8t-19.5 -2q-39 0 -70.5 24.5t-31.5 67.5z" />
    <glyph glyph-name="quotedblbase" unicode="&#x201e;" horiz-adv-x="1558" 
d="M365 -272q0 10 4 26l77 387q10 43 41 64.5t70 21.5q6 0 14.5 -1t24.5 -5q39 -10 63.5 -39.5t24.5 -70.5v-17q0 -8 -4 -18l-131 -371q-4 -12 -14.5 -30.5t-28.5 -28.5q-10 -6 -19.5 -8.5t-19.5 -2.5q-39 0 -70.5 25t-31.5 68zM786 -272q0 10 5 26l77 387q10 43 41 64.5
t70 21.5q6 0 14 -1t25 -5q39 -10 63.5 -39.5t24.5 -70.5v-17q0 -8 -4 -18l-131 -371q-4 -12 -14.5 -30.5t-28.5 -28.5q-10 -6 -19.5 -8.5t-19.5 -2.5q-39 0 -71 25t-32 68z" />
    <glyph glyph-name="dagger" unicode="&#x2020;" horiz-adv-x="1052" 
d="M139 1006v10q0 39 27 65.5t65 26.5h146q16 0 28.5 12.5t12.5 28.5v209q0 39 26.5 65.5t65.5 26.5h33q39 0 65.5 -26.5t26.5 -65.5v-209q0 -16 11 -28.5t28 -12.5h147q39 0 65.5 -26.5t26.5 -65.5v-10q0 -39 -26.5 -66t-65.5 -27h-147q-16 0 -27.5 -12t-11.5 -29v-712
q0 -39 -26.5 -65.5t-65.5 -26.5h-33q-39 0 -65.5 26.5t-26.5 65.5v712q0 16 -12.5 28.5t-28.5 12.5h-146q-39 0 -65.5 27t-26.5 66z" />
    <glyph glyph-name="daggerdbl" unicode="&#x2021;" horiz-adv-x="1052" 
d="M139 807v12q0 39 27 65.5t65 26.5h146q16 0 28.5 11.5t12.5 27.5v303q0 16 -12.5 28.5t-28.5 12.5h-146q-39 0 -65.5 26t-26.5 64v13q0 39 27 65.5t65 26.5h146q16 0 28.5 11t12.5 28v280q0 39 26.5 66t65.5 27h33q39 0 65.5 -27t26.5 -66v-280q0 -16 11 -27.5t28 -11.5
h147q39 0 65.5 -26.5t26.5 -65.5v-13q0 -39 -26.5 -64.5t-65.5 -25.5h-147q-16 0 -27.5 -12t-11.5 -29v-303q0 -16 11 -27.5t28 -11.5h147q39 0 65.5 -26.5t26.5 -65.5v-12q0 -39 -26.5 -64.5t-65.5 -25.5h-147q-16 0 -27.5 -12.5t-11.5 -28.5v-275q0 -39 -26.5 -65.5
t-65.5 -26.5h-33q-39 0 -65.5 26.5t-26.5 65.5v275q0 16 -12.5 28.5t-28.5 12.5h-146q-39 0 -65.5 25.5t-26.5 64.5z" />
    <glyph glyph-name="bullet" unicode="&#x2022;" horiz-adv-x="1228" 
d="M272 563q0 72 27 133.5t73 108.5t108.5 73.5t131.5 26.5q72 0 134.5 -26.5t109.5 -73.5t73.5 -108.5t26.5 -133.5t-26.5 -134t-73.5 -108.5t-109.5 -73t-134.5 -26.5q-70 0 -132 26.5t-108 73t-73 108.5t-27 134z" />
    <glyph glyph-name="ellipsis" unicode="&#x2026;" horiz-adv-x="2041" 
d="M272 109v16q0 57 39 96t97 39h16q57 0 96 -39t39 -96v-16q0 -57 -39 -96.5t-96 -39.5h-16q-57 0 -96.5 39.5t-39.5 96.5zM879 109v16q0 57 38.5 96t96.5 39h16q57 0 96 -39t39 -96v-16q0 -57 -39 -96.5t-96 -39.5h-16q-57 0 -96 39.5t-39 96.5zM1485 109v16q0 57 39 96
t96 39h14q57 0 96 -39t39 -96v-16q0 -57 -38.5 -96.5t-96.5 -39.5h-14q-57 0 -96 39.5t-39 96.5z" />
    <glyph glyph-name="uni202F" unicode="&#x202f;" horiz-adv-x="378" 
 />
    <glyph glyph-name="perthousand" unicode="&#x2030;" horiz-adv-x="1980" 
d="M72 899v268q0 53 19.5 98.5t54 79t80.5 53t98 19.5q53 0 99 -19.5t81 -53t54.5 -78.5t19.5 -99v-268q0 -51 -19.5 -97t-54.5 -81t-81 -54.5t-99 -19.5q-51 0 -97.5 19.5t-81 54.5t-54 81t-19.5 97zM240 891q0 -35 24.5 -59.5t59.5 -24.5t60.5 24.5t25.5 59.5v285
q0 35 -26 59.5t-60 24.5q-35 0 -59.5 -25t-24.5 -59v-285zM326 63q0 16 8 39l510 1252q16 41 43.5 57t56.5 16q35 0 55.5 -20.5t20.5 -52.5q0 -16 -8 -39l-510 -1252q-16 -41 -44 -57t-57 -16q-35 0 -55 20t-20 53zM774 252v268q0 53 19.5 98.5t54.5 79t81 53t97 19.5
q53 0 99 -19.5t81 -53t54.5 -79t19.5 -98.5v-268q0 -51 -19.5 -97t-54.5 -81t-81 -54.5t-99 -19.5q-51 0 -97 19.5t-81 54.5t-54.5 81t-19.5 97zM942 244q0 -35 24.5 -59.5t59.5 -24.5t60.5 24.5t25.5 59.5v284q0 35 -25.5 59.5t-60.5 24.5t-59.5 -24.5t-24.5 -59.5v-284z
M1403 252v268q0 53 19.5 98.5t54 79t81 53t97.5 19.5q53 0 99 -19.5t81 -53t54.5 -79t19.5 -98.5v-268q0 -51 -19.5 -97t-54.5 -81t-81 -54.5t-99 -19.5q-51 0 -97.5 19.5t-81 54.5t-54 81t-19.5 97zM1571 244q0 -35 24.5 -59.5t59.5 -24.5t60.5 24.5t25.5 59.5v284
q0 35 -25.5 59.5t-60.5 24.5t-59.5 -24.5t-24.5 -59.5v-284z" />
    <glyph glyph-name="guilsinglleft" unicode="&#x2039;" horiz-adv-x="667" 
d="M121 535q0 29 14 53l189 315q29 49 82 49q39 0 66.5 -28.5t27.5 -63.5q0 -27 -15 -51l-135 -242q-8 -16 -8 -32t8 -33l135 -242q14 -25 15 -51q0 -35 -28 -63.5t-66 -28.5q-53 0 -82 49l-189 315q-14 25 -14 54z" />
    <glyph glyph-name="guilsinglright" unicode="&#x203a;" horiz-adv-x="667" 
d="M168 209q0 27 14 51l135 242q8 16 9 33q0 16 -9 32l-135 242q-14 25 -14 51q0 35 27.5 63.5t66.5 28.5q53 0 82 -49l188 -315q14 -25 15 -53q0 -29 -15 -54l-188 -315q-29 -49 -82 -49q-39 0 -66.5 28.5t-27.5 63.5z" />
    <glyph glyph-name="fraction" unicode="&#x2044;" horiz-adv-x="1294" 
d="M272 33q0 12 7 26l538 1323q10 23 28.5 34t39.5 11q25 0 35 -12t10 -31q0 -10 -6 -26l-541 -1323q-10 -23 -27.5 -34t-38.5 -11q-25 0 -35 12.5t-10 30.5z" />
    <glyph glyph-name="uni205F" unicode="&#x205f;" horiz-adv-x="475" 
 />
    <glyph glyph-name="Euro" unicode="&#x20ac;" horiz-adv-x="1003" 
d="M61 395q0 39 28 66.5t67 27.5h41q16 0 27.5 12.5t11.5 28.5v33q0 16 -11.5 27.5t-27.5 11.5h-41q-39 0 -67 27.5t-28 68.5q0 39 28 67t67 28h49q27 0 37 20q4 6 5 12t3 11q16 59 49 109t79 86t104.5 56.5t121.5 20.5q66 0 118 -16.5t89 -36.5l43 -25q18 -10 37 -22
q29 -18 40 -38t11 -42q0 -25 -18 -56l-6 -10q-31 -47 -80 -47q-31 0 -54 14l-75 50q-23 16 -50.5 25t-54.5 9q-68 0 -110 -49q-8 -8 -10.5 -16t-2.5 -14q0 -16 11.5 -28.5t27.5 -12.5h92q39 0 67 -28t28 -67q0 -41 -28 -68.5t-67 -27.5h-120q-16 0 -28.5 -11t-12.5 -28v-33
q0 -16 12 -28.5t29 -12.5h90q39 0 67.5 -27.5t28.5 -66.5t-28.5 -66.5t-67.5 -27.5h-72q-16 0 -28.5 -12.5t-12.5 -28.5q0 -8 4 -16q16 -33 52 -54.5t79 -21.5q51 0 101 33l79 51q23 14 54 14q49 0 80 -47l6 -10q18 -31 18 -55q0 -23 -11 -42.5t-40 -37.5q-18 -12 -37 -23
l-43 -24q-37 -20 -89 -37t-118 -17q-63 0 -121.5 20.5t-104.5 56.5t-79 86t-49 110q-2 6 -4 16t-6 17q-10 23 -33 22h-51q-39 0 -67 27.5t-28 66.5z" />
    <glyph glyph-name="trademark" unicode="&#x2122;" horiz-adv-x="1595" 
d="M152 1352q0 27 18 46t45 19h414q27 0 46 -19.5t19 -45.5q0 -27 -19.5 -46.5t-45.5 -19.5h-101q-12 0 -21 -8t-9 -25v-520q0 -29 -19.5 -48t-48.5 -19t-48.5 19.5t-19.5 47.5v520q0 12 -8 22.5t-24 10.5h-115q-27 0 -45 19.5t-18 46.5zM770 733v619q0 27 18.5 46t47.5 19
h43q16 0 32.5 -9t26.5 -26l82 -188q10 -18 27 -18q16 0 24 18l84 188q8 16 25.5 25.5t33.5 9.5h43q27 0 46.5 -19.5t19.5 -45.5v-619q0 -29 -19.5 -48t-48.5 -19t-48 19.5t-19 47.5v416l-66 -127q-8 -18 -23.5 -32.5t-39.5 -14.5h-25q-25 0 -41 14.5t-24 32.5l-64 127v-416
q0 -29 -19.5 -48t-47.5 -19q-29 0 -48.5 19t-19.5 48z" />
    <glyph glyph-name="partialdiff" unicode="&#x2202;" horiz-adv-x="1173" 
d="M240 387v90q0 55 4 85t10 52q35 123 120 191.5t208 68.5q35 0 69.5 -10t71.5 -26q16 -8 22 -9q16 0 17 21v18q-6 66 -34 122.5t-74 98t-104 66.5t-126 25h-64q-39 0 -64.5 26.5t-25.5 65.5v10q0 39 26 65.5t64 26.5h64q115 0 215 -43t176 -116.5t119 -174t43 -215.5v-438
q0 -59 -4 -89t-10 -52q-14 -59 -48 -109.5t-80.5 -86.5t-103.5 -56.5t-123 -20.5q-63 0 -121.5 20.5t-104.5 56.5t-79 86t-49 110q-6 23 -10 52.5t-4 88.5zM455 371q0 -45 2 -63.5t6 -28.5q14 -47 53 -79t92 -32t92 31.5t54 79.5q4 10 6 28.5t2 63.5v198q0 12 -2 21.5
t-12 19.5l-19 17q-31 27 -66.5 40t-70.5 13q-45 0 -80 -28.5t-49 -69.5q-4 -10 -6 -28.5t-2 -59.5v-123z" />
    <glyph glyph-name="uni2206" unicode="&#x2206;" horiz-adv-x="1236" 
d="M72 82q0 10 3 23.5t7 23.5l319 1165q6 25 18.5 50.5t31 48t46 37t64.5 14.5h115q37 0 63.5 -14.5t46 -37t31.5 -48t19 -50.5l319 -1165q4 -10 7 -23.5t3 -23.5q0 -33 -17.5 -52.5t-45.5 -31.5q-16 -6 -27.5 -8t-17.5 -2h-877q-6 0 -17 2t-28 8q-29 12 -46 31.5t-17 52.5z
M322 213q0 -12 8 -21.5t28 -9.5h521q20 0 28 9.5t8 21.5q0 6 -4 23l-266 1005q-4 10 -9 18.5t-18 8.5q-12 0 -17 -8.5t-9 -18.5l-266 -1005q-4 -17 -4 -23z" />
    <glyph glyph-name="product" unicode="&#x220f;" horiz-adv-x="1476" 
d="M272 -113v1557q0 39 27 65.5t66 26.5h747q39 0 65.5 -26.5t26.5 -65.5v-1557q0 -39 -26.5 -65.5t-65.5 -26.5h-33q-39 0 -65.5 26.5t-26.5 65.5v1407q0 25 -17.5 41.5t-41.5 16.5h-381q-23 0 -41.5 -16.5t-18.5 -41.5v-1407q0 -39 -25.5 -65.5t-64.5 -26.5h-32
q-39 0 -66 26.5t-27 65.5z" />
    <glyph glyph-name="summation" unicode="&#x2211;" horiz-adv-x="1353" 
d="M164 -102q0 14 5 28.5t11 24.5l477 694q4 8 5 14q0 6 -5 15l-477 694q-6 10 -11 24.5t-5 28.5v11q0 39 26.5 65.5t65.5 26.5h733q41 0 66.5 -27t25.5 -65v-11q0 -39 -25.5 -65.5t-66.5 -26.5h-516q-23 0 -22 -18q0 -8 6 -19l401 -579q6 -10 11 -24.5t5 -29.5
q0 -14 -5 -28.5t-11 -24.5l-401 -579q-6 -8 -6 -19q0 -18 22 -18h516q41 0 66.5 -26.5t25.5 -65.5v-11q0 -39 -25.5 -65.5t-66.5 -26.5h-733q-39 0 -65.5 26.5t-26.5 65.5v11z" />
    <glyph glyph-name="radical" unicode="&#x221a;" horiz-adv-x="1640" 
d="M272 625q0 23 12.5 45t34.5 37l211 120q25 10 45 11q39 0 59.5 -18.5t31.5 -47.5l194 -596q4 -10 10.5 -18t18.5 -8t17 9t9 17l324 1307q23 66 82 65q12 0 24.5 -3t22.5 -7q29 -10 46.5 -28.5t17.5 -51.5q0 -14 -2.5 -25.5t-6.5 -21.5l-331 -1290q-6 -23 -18.5 -49.5
t-32 -48t-46 -36t-63.5 -14.5h-103q-37 0 -63.5 14.5t-45 36t-30.5 48t-20 49.5l-140 426q-12 33 -41 33q-10 0 -16 -3.5t-16 -7.5l-43 -24q-27 -14 -49 -15q-39 0 -66 28t-27 67z" />
    <glyph glyph-name="infinity" unicode="&#x221e;" horiz-adv-x="1941" 
d="M272 600v6q0 86 32 161t86 130t128 87t160 32q84 0 152.5 -30t121.5 -83q10 -10 19 -10q8 0 18 10q53 53 122 83t153 30q86 0 159.5 -32t128 -87t86 -130t31.5 -161v-6q0 -86 -31.5 -160.5t-86 -130t-128 -87.5t-159.5 -32q-84 0 -153 30t-122 83q-10 10 -18 10t-19 -10
q-53 -53 -121.5 -83t-152.5 -30q-86 0 -160 32t-128 87.5t-86 130t-32 160.5zM481 580q0 -39 15.5 -75t42 -62.5t62.5 -42t77 -15.5t77 15.5t62.5 42t41.5 62.5t15 75v47q0 82 -57 138t-139 56t-139.5 -56t-57.5 -138v-47zM1067 580q0 -39 15.5 -75t42 -62.5t62.5 -42
t77 -15.5t76.5 15.5t62.5 42t42 62.5t15 75v47q0 82 -57 138t-139 56t-139.5 -56t-57.5 -138v-47z" />
    <glyph glyph-name="integral" unicode="&#x222b;" horiz-adv-x="1185" 
d="M61 -182q0 23 15 47l14 22q25 41 76 41q29 0 51 -14l84 -51q45 -33 100 -33q63 0 107.5 45t44.5 109v1470q0 76 28.5 142.5t79 115.5t117 78t142.5 29q66 0 118 -15.5t90 -38.5q25 -14 46.5 -25t39.5 -24q23 -12 33 -33.5t10 -44.5q0 -29 -14 -49l-12 -20
q-25 -43 -76 -43q-29 0 -51 14l-84 51q-49 33 -100 33q-63 0 -107.5 -45t-44.5 -109v-1470q0 -76 -28.5 -142.5t-79 -115.5t-117 -78t-142.5 -29q-66 0 -118 15.5t-90 38.5q-25 14 -46.5 25.5t-40.5 23.5q-45 29 -45 80z" />
    <glyph glyph-name="approxequal" unicode="&#x2248;" horiz-adv-x="1357" 
d="M121 336q0 25 14.5 49.5t40.5 36.5l84 41q63 29 116.5 42t106.5 13q109 0 207 -47l58 -27q57 -29 126 -28q33 0 66 7t72 28l88 41q16 8 41 8q41 0 68.5 -25.5t27.5 -68.5q0 -25 -16.5 -50.5t-38.5 -36.5l-84 -40q-63 -29 -116.5 -42.5t-107.5 -13.5q-59 0 -109 8.5
t-112 42.5l-49 27q-25 12 -56.5 18.5t-64.5 6.5t-66.5 -7.5t-70.5 -27.5q-10 -4 -25.5 -12.5t-29.5 -14.5q-16 -8 -33 -14q-16 -8 -41 -8q-41 0 -68.5 25.5t-27.5 68.5zM121 788q0 25 14.5 49.5t40.5 36.5l84 41q63 29 116.5 42.5t106.5 13.5q106 0 205 -47l60 -27
q57 -29 126 -29q33 0 66 7.5t72 27.5l88 41q16 8 41 8q41 0 68.5 -25.5t27.5 -68.5q0 -25 -14.5 -49.5t-40.5 -36.5l-84 -41q-78 -35 -127 -45t-97 -10q-53 0 -100 10t-96 33l-74 35q-27 14 -57.5 19t-63.5 5t-66.5 -7t-70.5 -28q-10 -4 -25.5 -12t-29.5 -14q-16 -8 -33 -15
q-16 -8 -41 -8q-41 0 -68.5 25.5t-27.5 68.5z" />
    <glyph glyph-name="notequal" unicode="&#x2260;" horiz-adv-x="1224" 
d="M182 371q0 41 28 66.5t66 25.5h672q39 0 66.5 -25.5t27.5 -66.5q0 -39 -27.5 -65.5t-66.5 -26.5h-672q-39 0 -66.5 26.5t-27.5 65.5zM182 825q0 39 28 66t66 27h672q39 0 66.5 -27t27.5 -66t-27.5 -65.5t-66.5 -26.5h-672q-39 0 -66.5 26.5t-27.5 65.5z" />
    <glyph glyph-name="lessequal" unicode="&#x2264;" horiz-adv-x="1265" 
d="M303 -203q0 39 27.5 65.5t66.5 26.5h586q39 0 66.5 -26.5t27.5 -65.5t-27.5 -65.5t-66.5 -26.5h-586q-39 0 -66.5 26.5t-27.5 65.5zM319 602q0 43 31 74l475 475q27 29 68 29t68 -29q27 -27 26 -68q0 -37 -26 -63l-328 -344q-31 -31 -31 -74q0 -41 31 -72l328 -344
q27 -27 26 -65q0 -39 -26 -68q-27 -27 -68 -26q-41 0 -68 26l-475 477q-31 31 -31 72z" />
    <glyph glyph-name="greaterequal" unicode="&#x2265;" horiz-adv-x="1265" 
d="M188 -203q0 39 28 65.5t67 26.5h585q39 0 67 -26.5t28 -65.5t-28 -65.5t-67 -26.5h-585q-39 0 -67 26.5t-28 65.5zM279 121q0 39 26 65l328 344q31 31 31 72q0 43 -31 74l-328 344q-27 27 -26 63q0 41 26 68q27 29 68 29t67 -29l475 -475q31 -31 31 -74q0 -41 -31 -72
l-475 -477q-27 -27 -67 -26q-41 0 -68 26q-26 29 -26 68z" />
    <glyph glyph-name="lozenge" unicode="&#x25ca;" horiz-adv-x="1339" 
d="M272 719q0 27 9 51l170 524q8 25 20 50.5t30.5 48t45 37t63.5 14.5h119q37 0 63.5 -14.5t45 -37t31 -48t20.5 -50.5l170 -524q8 -25 8 -51q0 -27 -8 -51l-170 -529q-8 -25 -20.5 -50.5t-31 -48t-45 -36.5t-63.5 -14h-119q-37 0 -63.5 14t-45 36.5t-30.5 48.5t-20 50
l-170 529q-9 24 -9 51zM473 717q0 -12 4 -25l166 -499q4 -10 9 -18.5t18 -8.5q12 0 17 8t9 19l166 499q4 12 4 25q0 12 -4 24l-166 500q-4 10 -9 18.5t-17 8.5t-17.5 -8.5t-9.5 -18.5l-166 -500q-4 -12 -4 -24z" />
    <glyph glyph-name="uniE000" unicode="&#xe000;" horiz-adv-x="1430" 
d="M0 1430h1430v-1430h-1430v1430z" />
    <glyph glyph-name="uniF8FF" unicode="&#xf8ff;" horiz-adv-x="1650" 
d="M272 80v934q0 39 27 65.5t66 26.5h923q39 0 64.5 -26.5t25.5 -65.5v-934q0 -39 -25.5 -65.5t-64.5 -26.5h-923q-39 0 -66 26.5t-27 65.5zM487 213q0 -12 8.5 -21.5t28.5 -9.5h602q20 0 28.5 9.5t8.5 21.5v668q0 12 -8 21t-29 9h-602q-20 0 -28.5 -9t-8.5 -21v-668z" />
    <glyph glyph-name="uniFB01" unicode="&#xfb01;" horiz-adv-x="1396" 
d="M121 979v10q0 39 26.5 65.5t65.5 26.5h8q16 0 28.5 12.5t12.5 28.5v97q0 66 24.5 121t66.5 96t99.5 64.5t120.5 23.5h25q39 0 64.5 -25.5t25.5 -64.5v-13q0 -39 -25.5 -65.5t-64.5 -26.5h-25q-39 0 -67.5 -28.5t-28.5 -67.5v-111q0 -16 12.5 -28.5t28.5 -12.5h313
q63 0 120 -23.5t100 -64.5t67.5 -97t24.5 -122v-682q0 -39 -25.5 -65.5t-64.5 -26.5h-33q-39 0 -65.5 26.5t-26.5 65.5v696q0 39 -28 69t-66 30h-316q-16 0 -28.5 -12.5t-12.5 -28.5v-754q0 -39 -25.5 -65.5t-64.5 -26.5h-33q-39 0 -65.5 26.5t-26.5 65.5v754q0 16 -12 28.5
t-29 12.5h-8q-39 0 -65.5 26.5t-26.5 65.5zM893 1419v17q0 57 39 96t96 39h16q57 0 96.5 -39t39.5 -96v-17q0 -57 -39 -96t-97 -39h-16q-57 0 -96 39t-39 96z" />
    <glyph glyph-name="uniFB02" unicode="&#xfb02;" horiz-adv-x="1402" 
d="M121 979v10q0 39 26.5 65.5t65.5 26.5h8q16 0 28.5 12.5t12.5 28.5v97q0 66 24.5 121t66.5 96t99.5 64.5t120.5 23.5h445q39 0 64.5 -25.5t25.5 -64.5v-1155q0 -39 27.5 -69t66.5 -30h19q39 0 65.5 -25.5t26.5 -64.5v-12q0 -39 -26.5 -65.5t-65.5 -26.5h-17
q-63 0 -119.5 23.5t-99.5 64.5t-67.5 97t-24.5 122v979q0 25 -17.5 41t-41.5 16h-261q-39 0 -67.5 -28.5t-28.5 -67.5v-111q0 -16 12.5 -28.5t28.5 -12.5h80q39 0 64.5 -26.5t25.5 -65.5v-10q0 -39 -25.5 -65.5t-64.5 -26.5h-80q-16 0 -28.5 -12.5t-12.5 -28.5v-754
q0 -39 -25.5 -65.5t-64.5 -26.5h-33q-39 0 -65.5 26.5t-26.5 65.5v754q0 16 -12 28.5t-29 12.5h-8q-39 0 -65.5 26.5t-26.5 65.5z" />
    </font>
</defs>
</svg>
